<?xml version="1.0" encoding="UTF-8"?>
<svg version="1.1" xmlns="http://www.w3.org/2000/svg" width="1024" height="1024">
<path d="M0 0 C0.70159241 0.1018158 1.40318481 0.20363159 2.1260376 0.30853271 C74.48402613 10.85082162 145.68287603 34.21102759 200 85 C200.93585937 85.87011719 201.87171875 86.74023438 202.8359375 87.63671875 C230.60609884 114.06523762 248.12650187 149.69197723 249.3125 188.1875 C248.55089334 222.50211116 234.39461297 254.78964071 211.06640625 279.78125 C209.22067316 281.76305793 207.48389326 283.79603216 205.75 285.875 C188.84556346 305.19435605 166.34555498 319.78538795 144 332 C144.22139648 332.71317383 144.44279297 333.42634766 144.67089844 334.16113281 C150.65300014 353.55160815 156.32467249 372.60510934 157 393 C157.78419312 393.24327026 157.78419312 393.24327026 158.58422852 393.49145508 C164.8824022 395.51048024 170.88876159 398.02231449 176.9375 400.6875 C178.79932886 401.50721305 180.66254331 402.32378856 182.52734375 403.13671875 C183.33937256 403.49467529 184.15140137 403.85263184 184.98803711 404.22143555 C186.95131128 405.12029644 186.95131128 405.12029644 189 405 C190.40508653 403.06800602 191.70855023 401.13089247 193 399.125 C203.06359439 384.12995765 215.94944472 374.45101358 233.5625 370.125 C241.13304798 369.84970735 246.30277358 370.93816555 252.1875 375.9375 C263.50755188 387.06268401 268.89247727 401.62356883 273.25 416.5625 C273.61943726 417.81909424 273.61943726 417.81909424 273.99633789 419.10107422 C277.7490606 432.52272913 278.22707859 445.05323616 277.30664062 458.91601562 C276.990337 469.3647575 280.27182947 474.28003037 287 482 C304.1765458 507.18744259 302.42350121 548.5657109 303.89285278 577.87011719 C303.96890857 579.38196148 304.04770181 580.89366917 304.12838745 582.40527344 C305.03041885 599.59310104 305.18775213 616.7656914 305.18530273 633.97216797 C305.18522131 636.99078337 305.19221222 640.00924753 305.20581055 643.02783203 C305.26988581 657.52650483 305.31424797 672.00386386 304.17578125 686.46875 C304.10642868 687.38869751 304.03707611 688.30864502 303.96562195 689.25646973 C303.37062875 695.73495911 301.87891132 701.77883086 300 708 C298.68 708.33 297.36 708.66 296 709 C296.02392822 709.87221191 296.04785645 710.74442383 296.07250977 711.64306641 C296.25879599 724.30569126 295.1670138 736.78032819 293.9375 749.375 C293.77385452 751.07426636 293.77385452 751.07426636 293.60690308 752.80786133 C291.43683535 775.06748659 288.20447706 797.03813737 284 819 C283.86573608 819.70533875 283.73147217 820.41067749 283.59313965 821.13739014 C277.53527055 852.81901561 271.20139857 876.69478833 245 897 C243.90588762 897.88074881 242.81350789 898.76365331 241.72265625 899.6484375 C233.48003961 906.2962004 224.94338108 912.33255677 216 918 C215.42765625 918.36270996 214.8553125 918.72541992 214.265625 919.09912109 C209.90302423 921.83700328 205.47091902 924.44337898 201 927 C200.1642041 927.47808105 199.3284082 927.95616211 198.46728516 928.44873047 C125.05516729 970.0738873 40.8766116 988.5142452 -251.26293945 972.11303711 C-303.53687456 957.36047489 -352.28859746 934.71140254 -391 896 C-392.18529297 894.86691406 -392.18529297 894.86691406 -393.39453125 893.7109375 C-417.71343021 870.21707389 -423.02630075 838.03422607 -429 806 C-429.21897949 804.82888672 -429.43795898 803.65777344 -429.66357422 802.45117188 C-432.79425769 785.32128531 -434.89123694 768.11902441 -436.75 750.8125 C-436.85700226 749.82606506 -436.96400452 748.83963013 -437.07424927 747.82330322 C-438.49967333 734.55832984 -439.47895578 721.33126254 -440 708 C-440.63503448 707.88115952 -441.27006897 707.76231903 -441.92434692 707.63987732 C-444 707 -444 707 -445.21044922 704.76196289 C-445.98473468 702.0534003 -446.40044992 699.61303133 -446.6328125 696.80859375 C-446.71692383 695.79708252 -446.80103516 694.78557129 -446.88769531 693.7434082 C-446.96600586 692.6524585 -447.04431641 691.56150879 -447.125 690.4375 C-447.2084668 689.2827417 -447.29193359 688.1279834 -447.37792969 686.93823242 C-451.30863036 627.50042301 -443.38513653 566.79363175 -431.9375 508.5625 C-431.7777771 507.73959473 -431.6180542 506.91668945 -431.45349121 506.06884766 C-427.19354101 484.28089736 -421.41712962 461.35043758 -403.89282227 446.17529297 C-396.95064301 439.94382121 -394.48198989 433.69006176 -391.8125 424.875 C-391.39286661 423.56786517 -390.96990649 422.26179388 -390.54370117 420.95678711 C-389.71705033 418.4237671 -388.90021068 415.88847241 -388.08984375 413.35009766 C-383.02005511 397.76594898 -376.29498014 382.8291291 -366 370 C-365.02546875 368.77796875 -365.02546875 368.77796875 -364.03125 367.53125 C-358.6925079 361.17560464 -351.99586949 354.53471936 -343.328125 353.76171875 C-336.68892127 353.60163643 -332.24050416 353.81767457 -327 358 C-326.1028125 358.64195312 -326.1028125 358.64195312 -325.1875 359.296875 C-315.2820009 367.04553156 -308.04819323 379.15408387 -302 390 C-292.48610229 388.31205041 -283.28118882 385.6488796 -274 383 C-273.92523438 381.82566406 -273.85046875 380.65132813 -273.7734375 379.44140625 C-272.58371511 363.92307645 -268.44447682 350.67952852 -261 337 C-261.50225098 336.71914551 -262.00450195 336.43829102 -262.52197266 336.14892578 C-273.47676187 329.99356781 -283.99701209 323.61065271 -294 316 C-294.87132568 315.34281982 -294.87132568 315.34281982 -295.76025391 314.67236328 C-303.2856718 308.97340351 -310.40118741 302.97345174 -317.2890625 296.51953125 C-320.33411457 293.68947565 -323.47565286 290.99686581 -326.671875 288.33984375 C-328 287 -328 287 -328 285 C-328.66 285 -329.32 285 -330 285 C-332.54682385 282.53999969 -334.72473286 279.71005845 -337 277 C-337.74636719 276.15179688 -338.49273437 275.30359375 -339.26171875 274.4296875 C-363.67295559 246.20542333 -376.14393724 214.55325962 -374 177 C-371.04490842 145.26516783 -355.22449289 117.19700279 -333.953125 94.140625 C-332.37097392 92.40658742 -330.89053119 90.65300618 -329.4375 88.8125 C-326.25595434 85.14148577 -322.70371799 82.13159895 -319 79 C-318.07316406 78.1853125 -317.14632812 77.370625 -316.19140625 76.53125 C-263.59056138 30.55072577 -193.08703502 9.06748684 -125 0 C-123.83130371 -0.16516113 -122.66260742 -0.33032227 -121.45849609 -0.50048828 C-82.24519199 -5.87224987 -39.15255351 -5.76807842 0 0 Z " fill="#FEE4BC" transform="translate(581,22)"/>
<path d="M0 0 C0.70159241 0.1018158 1.40318481 0.20363159 2.1260376 0.30853271 C74.48402613 10.85082162 145.68287603 34.21102759 200 85 C200.93585937 85.87011719 201.87171875 86.74023438 202.8359375 87.63671875 C230.60609884 114.06523762 248.12650187 149.69197723 249.3125 188.1875 C248.55089334 222.50211116 234.39461297 254.78964071 211.06640625 279.78125 C209.22067316 281.76305793 207.48389326 283.79603216 205.75 285.875 C188.84556346 305.19435605 166.34555498 319.78538795 144 332 C141.49969395 329.07171364 140.0855834 326.02418591 138.6550293 322.46630859 C133.81802276 310.45999217 127.98675826 301.76982503 116 296 C109.64897043 293.88299014 103.05493025 294.12602818 96.9375 296.875 C80.66251755 306.11980807 72.63537896 323.67715605 65.81860352 340.22924805 C65 342 65 342 63 345 C62.67 306.39 62.34 267.78 62 228 C38.28128618 226.29652785 38.28128618 226.29652785 14.625 225.875 C13.26823633 225.8851251 11.91146471 225.89423293 10.5546875 225.90234375 C7.36956168 225.92509465 4.18490927 225.95734204 1 226 C-0.53442027 247.97159243 -1.00192008 270.01237863 -1.28125 292.03125 C-1.2908481 292.78752623 -1.30044621 293.54380245 -1.31033516 294.32299614 C-1.38746518 300.50329628 -1.45792804 306.68366944 -1.52606201 312.86407471 C-1.57761593 317.5357727 -1.63246803 322.20740811 -1.69187927 326.87901306 C-1.7177282 329.00953113 -1.73892494 331.14005914 -1.7598877 333.27062988 C-1.86455685 342.21844129 -2.33846476 351.07864824 -3 360 C-10.92 360 -18.84 360 -27 360 C-27.33 331.95 -27.66 303.9 -28 275 C-36.806875 274.979375 -45.61375 274.95875 -54.6875 274.9375 C-57.44053467 274.928396 -60.19356934 274.91929199 -63.0300293 274.90991211 C-65.25309195 274.90698692 -67.47615516 274.90443979 -69.69921875 274.90234375 C-71.38078064 274.8946698 -71.38078064 274.8946698 -73.09631348 274.88684082 C-80.77399393 274.88600873 -88.35413962 275.30716249 -96 276 C-96.01030746 276.56787231 -96.02061493 277.13574463 -96.03123474 277.7208252 C-96.52498902 304.82083827 -97.07500678 331.91091283 -98 359 C-107.24 359.66 -116.48 360.32 -126 361 C-126.78281326 348.31842511 -127.13377063 335.67017312 -127.28125 322.96875 C-127.29557068 321.74135605 -127.29557068 321.74135605 -127.31018066 320.48916626 C-127.37872772 314.49283005 -127.43991473 308.49642602 -127.5 302.5 C-127.56857055 295.69786521 -127.64018953 288.89577735 -127.71875 282.09375 C-127.72813599 281.27365448 -127.73752197 280.45355896 -127.74719238 279.60861206 C-127.92350259 264.72791955 -128.35842607 249.86826577 -129 235 C-134.7711683 234.00843431 -140.36222929 233.85431828 -146.2109375 233.8671875 C-147.17850983 233.86623077 -148.14608215 233.86527405 -149.14297485 233.86428833 C-151.18190578 233.86361041 -153.2208389 233.86543756 -155.25976562 233.86962891 C-158.358123 233.8749709 -161.45633466 233.86967671 -164.5546875 233.86328125 C-166.54427115 233.86394233 -168.53385471 233.8652241 -170.5234375 233.8671875 C-171.43934662 233.86516327 -172.35525574 233.86313904 -173.29891968 233.86105347 C-178.94159365 233.88131941 -184.40181788 234.28414357 -190 235 C-190.92491101 244.87898469 -191.16773654 254.70838391 -191.20532227 264.62231445 C-191.21492552 266.24982945 -191.22493693 267.87734209 -191.23532104 269.50485229 C-191.2621115 273.88202674 -191.28325928 278.25921169 -191.30332303 282.63642144 C-191.32534414 287.22615435 -191.35265316 291.81585587 -191.37937927 296.40556335 C-191.42908994 305.07848355 -191.47410805 313.75142137 -191.51740164 322.42437571 C-191.56696007 332.30600933 -191.62180858 342.18761142 -191.67708123 352.06921446 C-191.79056884 372.37944688 -191.89747888 392.68970946 -192 413 C-200.77272848 416.57514667 -209.26454271 417.36403298 -218.6875 417.3125 C-219.73824707 417.30831055 -220.78899414 417.30412109 -221.87158203 417.29980469 C-237.80157262 417.06982172 -253.03097452 414.15964466 -265 403 C-269.034838 398.22190237 -270.45890353 392.94843606 -272 387 C-272.18691406 386.3503125 -272.37382812 385.700625 -272.56640625 385.03125 C-275.5462397 371.07166989 -270.57798125 357.36117839 -264.69335938 344.95263672 C-264.34724609 344.22189941 -264.00113281 343.49116211 -263.64453125 342.73828125 C-263.32846924 342.08899658 -263.01240723 341.43971191 -262.68676758 340.77075195 C-261.81920187 338.85037698 -261.81920187 338.85037698 -262 336 C-263.13695312 335.39414062 -264.27390625 334.78828125 -265.4453125 334.1640625 C-275.50505612 328.73456004 -284.91499234 322.93288193 -294 316 C-294.58233398 315.56042969 -295.16466797 315.12085938 -295.76464844 314.66796875 C-303.28874812 308.97050538 -310.40259911 302.97212898 -317.2890625 296.51953125 C-320.33411457 293.68947565 -323.47565286 290.99686581 -326.671875 288.33984375 C-328 287 -328 287 -328 285 C-328.66 285 -329.32 285 -330 285 C-332.54682385 282.53999969 -334.72473286 279.71005845 -337 277 C-337.74636719 276.15179688 -338.49273437 275.30359375 -339.26171875 274.4296875 C-363.67295559 246.20542333 -376.14393724 214.55325962 -374 177 C-371.04490842 145.26516783 -355.22449289 117.19700279 -333.953125 94.140625 C-332.37097392 92.40658742 -330.89053119 90.65300618 -329.4375 88.8125 C-326.25595434 85.14148577 -322.70371799 82.13159895 -319 79 C-318.07316406 78.1853125 -317.14632812 77.370625 -316.19140625 76.53125 C-263.59056138 30.55072577 -193.08703502 9.06748684 -125 0 C-123.83130371 -0.16516113 -122.66260742 -0.33032227 -121.45849609 -0.50048828 C-82.24519199 -5.87224987 -39.15255351 -5.76807842 0 0 Z " fill="#FEF4CA" transform="translate(581,22)"/>
<path d="M0 0 C4.78823077 3.74825304 7.91733211 8.38199242 11.19921875 13.4609375 C13.7059534 16.32845452 15.69776893 16.78697756 19.2890625 17.8515625 C19.6419615 31.76909105 18.58341303 45.44378358 17.2265625 59.2890625 C17.06291702 60.98458252 17.06291702 60.98458252 16.89596558 62.71435547 C14.72398398 84.95457253 11.48994771 106.90846168 7.2890625 128.8515625 C7.15479858 129.55690125 7.02053467 130.26223999 6.88220215 130.98895264 C0.82433305 162.67057811 -5.50953893 186.54635083 -31.7109375 206.8515625 C-32.80504988 207.73231131 -33.89742961 208.61521581 -34.98828125 209.5 C-43.23089789 216.1477629 -51.76755642 222.18411927 -60.7109375 227.8515625 C-61.28328125 228.21427246 -61.855625 228.57698242 -62.4453125 228.95068359 C-66.80791327 231.68856578 -71.24001848 234.29494148 -75.7109375 236.8515625 C-76.5467334 237.32964355 -77.3825293 237.80772461 -78.24365234 238.30029297 C-151.65577021 279.9254498 -235.8343259 298.3658077 -527.97387695 281.96459961 C-580.24781206 267.21203739 -628.99953496 244.56296504 -667.7109375 205.8515625 C-668.50113281 205.09617187 -669.29132813 204.34078125 -670.10546875 203.5625 C-694.42436771 180.06863639 -699.73723825 147.88578857 -705.7109375 115.8515625 C-705.92991699 114.68044922 -706.14889648 113.50933594 -706.37451172 112.30273438 C-709.50519519 95.17284781 -711.60217444 77.97058691 -713.4609375 60.6640625 C-713.56793976 59.67762756 -713.67494202 58.69119263 -713.78518677 57.67486572 C-715.21061083 44.40989234 -716.18989328 31.18282504 -716.7109375 17.8515625 C-710.02025198 15.45849735 -704.39467963 14.30042833 -697.2734375 14.3515625 C-696.34837402 14.35728271 -695.42331055 14.36300293 -694.47021484 14.36889648 C-687.5716687 14.54992389 -682.23805368 15.45907789 -676.7109375 19.8515625 C-676.09734375 20.32464844 -675.48375 20.79773438 -674.8515625 21.28515625 C-665.38117914 29.68697866 -660.25248992 42.4914555 -655.58163452 53.96569824 C-654.09389542 57.61519823 -652.56458519 61.2473412 -651.04296875 64.8828125 C-650.74961136 65.58653992 -650.45625397 66.29026733 -650.15400696 67.01531982 C-644.80067958 79.85249784 -639.27178574 91.80055358 -630.7109375 102.8515625 C-630.01355469 103.75648438 -629.31617188 104.66140625 -628.59765625 105.59375 C-618.93814949 117.21341261 -605.55106854 123.74560226 -590.7109375 125.8515625 C-578.50914427 126.89001299 -567.56741043 123.36483987 -558.14013672 115.54931641 C-551.33192478 109.73997403 -551.33192478 109.73997403 -545.7109375 102.8515625 C-545.0509375 102.8515625 -544.3909375 102.8515625 -543.7109375 102.8515625 C-543.44015381 102.25698242 -543.16937012 101.66240234 -542.89038086 101.04980469 C-540.97981088 97.48889141 -538.12520866 94.92800978 -535.2734375 92.1015625 C-534.64816162 91.47975098 -534.02288574 90.85793945 -533.37866211 90.21728516 C-528.18392635 85.14224987 -522.81352337 80.81271379 -516.7109375 76.8515625 C-516.12441406 76.44679688 -515.53789063 76.04203125 -514.93359375 75.625 C-513.23425578 74.53642653 -511.55128582 73.68101526 -509.7109375 72.8515625 C-508.89496094 72.4803125 -508.07898438 72.1090625 -507.23828125 71.7265625 C-493.34291751 66.45401341 -475.21926314 66.39386886 -461.55078125 72.30859375 C-446.2795702 80.60588173 -438.47695452 94.46905521 -430.85546875 109.4453125 C-420.27805255 130.19208387 -409.62973293 147.24423425 -386.49609375 154.91796875 C-366.78703079 160.16864575 -343.1678244 159.91602523 -324.8359375 150.3515625 C-309.78101582 141.31860949 -302.82934868 128.57493393 -295.53515625 113.19921875 C-294.97538086 112.02020996 -294.41560547 110.84120117 -293.83886719 109.62646484 C-292.73931432 107.29301167 -291.65202754 104.95372559 -290.57910156 102.60791016 C-283.27099088 86.96434324 -274.12504313 75.12121268 -257.7109375 68.8515625 C-249.12989741 65.9912158 -235.04717643 65.99809919 -226.8359375 69.8515625 C-224.66796875 71.25 -224.66796875 71.25 -222.7109375 72.8515625 C-221.66486328 73.70621094 -221.66486328 73.70621094 -220.59765625 74.578125 C-211.86213335 82.57334935 -207.19300255 92.81143207 -202.2734375 103.3515625 C-195.42826642 117.96815276 -188.04825752 130.36716817 -172.5625 136.8515625 C-153.77517594 143.43999395 -132.18805994 139.71386187 -114.5546875 131.35546875 C-100.9218299 123.87533504 -90.86768936 113.97359153 -82.7109375 100.8515625 C-82.32454102 100.23152344 -81.93814453 99.61148438 -81.54003906 98.97265625 C-75.08340863 88.4298934 -70.28094424 77.31408396 -65.7109375 65.8515625 C-65.32292969 64.89507813 -64.93492187 63.93859375 -64.53515625 62.953125 C-63.58151283 60.59060096 -62.64493863 58.22191598 -61.7109375 55.8515625 C-60.26131411 52.20398506 -58.8063478 48.55878768 -57.33984375 44.91796875 C-56.22228854 42.1419751 -55.13043119 39.35734235 -54.05078125 36.56640625 C-48.3013092 21.89477042 -40.85549894 4.80454889 -25.7109375 -2.1484375 C-16.72533871 -5.15940131 -8.1336043 -5.45954261 0 0 Z " fill="#FAB659" transform="translate(857.7109375,712.1484375)"/>
<path d="M0 0 C4.78823077 3.74825304 7.91733211 8.38199242 11.19921875 13.4609375 C13.7059534 16.32845452 15.69776893 16.78697756 19.2890625 17.8515625 C19.64167244 31.35165552 18.75295134 44.68818734 17.53735352 58.13110352 C17.32822014 60.50845553 17.13381812 62.88714456 16.95336914 65.2668457 C16.68946686 68.74262607 16.38301104 72.21226587 16.06640625 75.68359375 C15.9565464 77.27878593 15.9565464 77.27878593 15.84446716 78.90620422 C15.12316389 86.04792737 15.12316389 86.04792737 12.72917175 88.35447693 C10.87744141 89.41699219 10.87744141 89.41699219 7.2890625 90.8515625 C5.08786795 92.31453513 2.9043144 93.79249006 0.7265625 95.2890625 C-43.30102409 124.97961816 -92.52401177 146.89894481 -142.7109375 163.8515625 C-143.68949707 164.18236816 -144.66805664 164.51317383 -145.67626953 164.85400391 C-158.71736472 169.22039218 -171.89415082 172.84705569 -185.22509766 176.21240234 C-188.44366952 177.03996286 -191.63771332 177.9489278 -194.8359375 178.8515625 C-230.64369591 188.32202975 -267.81771792 193.21558239 -304.7109375 195.8515625 C-305.65743164 195.92213867 -306.60392578 195.99271484 -307.57910156 196.06542969 C-337.56803454 198.2131782 -367.76145387 196.93160096 -397.7109375 194.8515625 C-398.71060547 194.78743164 -399.71027344 194.72330078 -400.74023438 194.65722656 C-484.90991819 189.15167075 -568.46929444 164.36455163 -643.7109375 126.8515625 C-644.6189209 126.39958496 -645.5269043 125.94760742 -646.46240234 125.48193359 C-698.181523 99.54187289 -698.181523 99.54187289 -710.7109375 84.8515625 C-711.25479126 82.84107971 -711.25479126 82.84107971 -711.49462891 80.51391602 C-711.59127838 79.6377211 -711.68792786 78.76152618 -711.7875061 77.85877991 C-711.87825409 76.90893723 -711.96900208 75.95909454 -712.0625 74.98046875 C-712.16686371 73.98893295 -712.27122742 72.99739716 -712.37875366 71.97581482 C-712.59825358 69.8656191 -712.81134031 67.75474806 -713.01855469 65.64331055 C-713.32907385 62.48389746 -713.65868992 59.32698266 -713.9921875 56.16992188 C-715.31257879 43.40777138 -716.21713162 30.67179719 -716.7109375 17.8515625 C-710.02025198 15.45849735 -704.39467963 14.30042833 -697.2734375 14.3515625 C-696.34837402 14.35728271 -695.42331055 14.36300293 -694.47021484 14.36889648 C-687.5716687 14.54992389 -682.23805368 15.45907789 -676.7109375 19.8515625 C-676.09734375 20.32464844 -675.48375 20.79773438 -674.8515625 21.28515625 C-665.38117914 29.68697866 -660.25248992 42.4914555 -655.58163452 53.96569824 C-654.09389542 57.61519823 -652.56458519 61.2473412 -651.04296875 64.8828125 C-650.74961136 65.58653992 -650.45625397 66.29026733 -650.15400696 67.01531982 C-644.80067958 79.85249784 -639.27178574 91.80055358 -630.7109375 102.8515625 C-630.01355469 103.75648438 -629.31617188 104.66140625 -628.59765625 105.59375 C-618.93814949 117.21341261 -605.55106854 123.74560226 -590.7109375 125.8515625 C-578.50914427 126.89001299 -567.56741043 123.36483987 -558.14013672 115.54931641 C-551.33192478 109.73997403 -551.33192478 109.73997403 -545.7109375 102.8515625 C-545.0509375 102.8515625 -544.3909375 102.8515625 -543.7109375 102.8515625 C-543.44015381 102.25698242 -543.16937012 101.66240234 -542.89038086 101.04980469 C-540.97981088 97.48889141 -538.12520866 94.92800978 -535.2734375 92.1015625 C-534.64816162 91.47975098 -534.02288574 90.85793945 -533.37866211 90.21728516 C-528.18392635 85.14224987 -522.81352337 80.81271379 -516.7109375 76.8515625 C-516.12441406 76.44679688 -515.53789063 76.04203125 -514.93359375 75.625 C-513.23425578 74.53642653 -511.55128582 73.68101526 -509.7109375 72.8515625 C-508.89496094 72.4803125 -508.07898438 72.1090625 -507.23828125 71.7265625 C-493.34291751 66.45401341 -475.21926314 66.39386886 -461.55078125 72.30859375 C-446.2795702 80.60588173 -438.47695452 94.46905521 -430.85546875 109.4453125 C-420.27805255 130.19208387 -409.62973293 147.24423425 -386.49609375 154.91796875 C-366.78703079 160.16864575 -343.1678244 159.91602523 -324.8359375 150.3515625 C-309.78101582 141.31860949 -302.82934868 128.57493393 -295.53515625 113.19921875 C-294.97538086 112.02020996 -294.41560547 110.84120117 -293.83886719 109.62646484 C-292.73931432 107.29301167 -291.65202754 104.95372559 -290.57910156 102.60791016 C-283.27099088 86.96434324 -274.12504313 75.12121268 -257.7109375 68.8515625 C-249.12989741 65.9912158 -235.04717643 65.99809919 -226.8359375 69.8515625 C-224.66796875 71.25 -224.66796875 71.25 -222.7109375 72.8515625 C-221.66486328 73.70621094 -221.66486328 73.70621094 -220.59765625 74.578125 C-211.86213335 82.57334935 -207.19300255 92.81143207 -202.2734375 103.3515625 C-195.42826642 117.96815276 -188.04825752 130.36716817 -172.5625 136.8515625 C-153.77517594 143.43999395 -132.18805994 139.71386187 -114.5546875 131.35546875 C-100.9218299 123.87533504 -90.86768936 113.97359153 -82.7109375 100.8515625 C-82.32454102 100.23152344 -81.93814453 99.61148438 -81.54003906 98.97265625 C-75.08340863 88.4298934 -70.28094424 77.31408396 -65.7109375 65.8515625 C-65.32292969 64.89507813 -64.93492187 63.93859375 -64.53515625 62.953125 C-63.58151283 60.59060096 -62.64493863 58.22191598 -61.7109375 55.8515625 C-60.26131411 52.20398506 -58.8063478 48.55878768 -57.33984375 44.91796875 C-56.22228854 42.1419751 -55.13043119 39.35734235 -54.05078125 36.56640625 C-48.3013092 21.89477042 -40.85549894 4.80454889 -25.7109375 -2.1484375 C-16.72533871 -5.15940131 -8.1336043 -5.45954261 0 0 Z " fill="#F2A05B" transform="translate(857.7109375,712.1484375)"/>
<path d="M0 0 C0.70159241 0.1018158 1.40318481 0.20363159 2.1260376 0.30853271 C74.48402613 10.85082162 145.68287603 34.21102759 200 85 C200.93585937 85.87011719 201.87171875 86.74023438 202.8359375 87.63671875 C230.60609884 114.06523762 248.12650187 149.69197723 249.3125 188.1875 C248.55089334 222.50211116 234.39461297 254.78964071 211.06640625 279.78125 C209.22067316 281.76305793 207.48389326 283.79603216 205.75 285.875 C188.84556346 305.19435605 166.34555498 319.78538795 144 332 C141.01671008 328.50605685 139.50586641 324.58335459 137.8125 320.375 C134.43636857 312.33138055 130.32436138 305.35358638 123.3203125 299.921875 C121 298 121 298 120 295 C123 293 123 293 126 292 C126.66 291.34 127.32 290.68 128 290 C128.66 289.54625 129.32 289.0925 130 288.625 C132.13118215 286.8934145 132.96147788 285.50976178 134 283 C134.99 283.33 135.98 283.66 137 284 C137.66 282.35 138.32 280.7 139 279 C140.65 279 142.3 279 144 279 C144.35964844 277.66195312 144.35964844 277.66195312 144.7265625 276.296875 C146.11975635 272.68995595 147.60973636 270.91420749 150.375 268.25 C151.14585937 267.49203125 151.91671875 266.7340625 152.7109375 265.953125 C154.7793008 264.1883099 156.56287918 263.14077996 159 262 C159.66 261.34 160.32 260.68 161 260 C161 259.01 161 258.02 161 257 C161.804375 256.731875 162.60875 256.46375 163.4375 256.1875 C164.283125 255.795625 165.12875 255.40375 166 255 C166.33 254.01 166.66 253.02 167 252 C167.66 251.34 168.32 250.68 169 250 C176.43667212 237.77438732 182.05952424 224.86838799 186.0546875 211.16796875 C187 208 187 208 188 206 C188.35919321 204.00448218 188.69496569 202.00451121 189 200 C188.34 200 187.68 200 187 200 C187.33 199.01 187.66 198.02 188 197 C188.34820041 195.33637583 188.68404492 193.67004829 189 192 C189.33 192 189.66 192 190 192 C190 189.69 190 187.38 190 185 C189.67 185 189.34 185 189 185 C187.98079701 180.28618618 187.96008813 175.87585789 188.0625 171.0625 C188.00880372 168.43138206 187.74697452 166.48991506 187 164 C186.855625 163.319375 186.71125 162.63875 186.5625 161.9375 C186.01897401 159.70268087 186.01897401 159.70268087 184 157 C183.875 154.3125 183.875 154.3125 184 152 C183.34 152 182.68 152 182 152 C181.52691406 150.92363281 181.05382812 149.84726563 180.56640625 148.73828125 C176.29141052 139.21933451 171.7808971 130.02473029 165 122 C164.01 121.67 163.02 121.34 162 121 C161.855625 120.360625 161.71125 119.72125 161.5625 119.0625 C161.19895007 116.79688294 161.19895007 116.79688294 158.9375 115.75 C157.9784375 115.37875 157.9784375 115.37875 157 115 C157.33 113.68 157.66 112.36 158 111 C156.6078125 110.1646875 156.6078125 110.1646875 155.1875 109.3125 C152.01152118 107.0083585 150.88985438 105.32974343 149 102 C146.05270463 100.84188612 146.05270463 100.84188612 143 101 C142.7525 100.030625 142.505 99.06125 142.25 98.0625 C141.63125 96.5465625 141.63125 96.5465625 141 95 C139.07361988 94.24756445 139.07361988 94.24756445 137 94 C136 93 135 92 134 91 C133.01 91 132.02 91 131 91 C130.67 90.01 130.34 89.02 130 88 C128.36368108 86.95107762 126.69514137 85.95093297 125 85 C124.34 84.34 123.68 83.68 123 83 C122.01 82.34 121.02 81.68 120 81 C119.34 81.33 118.68 81.66 118 82 C117.01 80.68 116.02 79.36 115 78 C114.34 78.33 113.68 78.66 113 79 C112.01 77.68 111.02 76.36 110 75 C109.34 75.33 108.68 75.66 108 76 C107.236875 75.175 106.47375 74.35 105.6875 73.5 C103.24565858 70.65944803 103.24565858 70.65944803 100 71 C98.09859048 70.31973032 96.22478563 69.56019635 94.375 68.75 C93.39273437 68.33234375 92.41046875 67.9146875 91.3984375 67.484375 C89 66 89 66 88.1640625 63.828125 C88.10992188 63.22484375 88.05578125 62.6215625 88 62 C86.515 62.495 86.515 62.495 85 63 C82.3125 62.5625 82.3125 62.5625 80 62 C80 61.34 80 60.68 80 60 C78.68 60 77.36 60 76 60 C75.67 59.34 75.34 58.68 75 58 C72.97536745 57.34786708 72.97536745 57.34786708 71 57 C71 56.34 71 55.68 71 55 C69.515 55.495 69.515 55.495 68 56 C67.01 56 66.02 56 65 56 C63.3125 54 63.3125 54 62 52 C61.34 52.33 60.68 52.66 60 53 C59.67 52.34 59.34 51.68 59 51 C58.34 51.33 57.68 51.66 57 52 C56.67 51.34 56.34 50.68 56 50 C55.34 50.33 54.68 50.66 54 51 C53.67 50.34 53.34 49.68 53 49 C52.34 49.33 51.68 49.66 51 50 C50.67 49.34 50.34 48.68 50 48 C48.515 48.495 48.515 48.495 47 49 C47 48.34 47 47.68 47 47 C45.515 47.495 45.515 47.495 44 48 C43.67 47.34 43.34 46.68 43 46 C42.01 46.66 41.02 47.32 40 48 C40 47.01 40 46.02 40 45 C38.515 45.495 38.515 45.495 37 46 C36.67 45.34 36.34 44.68 36 44 C34.515 44.495 34.515 44.495 33 45 C32.67 44.34 32.34 43.68 32 43 C30.515 43.495 30.515 43.495 29 44 C28.67 43.34 28.34 42.68 28 42 C26.68 42.66 25.36 43.32 24 44 C24.33 42.68 24.66 41.36 25 40 C23.35 40.66 21.7 41.32 20 42 C19.67 41.34 19.34 40.68 19 40 C17.68 40.33 16.36 40.66 15 41 C14.67 40.34 14.34 39.68 14 39 C12.68 39.33 11.36 39.66 10 40 C10 39.01 10 38.02 10 37 C8.02 37.99 6.04 38.98 4 40 C4 38.68 4 37.36 4 36 C3.21625 36.515625 2.4325 37.03125 1.625 37.5625 C0.75875 38.036875 -0.1075 38.51125 -1 39 C-1.66 38.67 -2.32 38.34 -3 38 C-1.68 35.03 -0.36 32.06 1 29 C0.401875 29.763125 -0.19625 30.52625 -0.8125 31.3125 C-5.64458955 37.24906716 -5.64458955 37.24906716 -10 38 C-9.2575 36.329375 -9.2575 36.329375 -8.5 34.625 C-6.8725494 31.34584251 -6.8725494 31.34584251 -7 29 C-7.70125 29.94875 -8.4025 30.8975 -9.125 31.875 C-11.69603218 34.99854626 -14.01739573 36.07381296 -18 37 C-16.68 34.03 -15.36 31.06 -14 28 C-14.33 27.67 -14.66 27.34 -15 27 C-15.66 28.11375 -16.32 29.2275 -17 30.375 C-19.1396129 33.42718555 -20.68258091 34.56709311 -24.3125 35.4375 C-25.529375 35.623125 -26.74625 35.80875 -28 36 C-26.35 32.7 -24.7 29.4 -23 26 C-23.33 25.67 -23.66 25.34 -24 25 C-24.4125 25.55429687 -24.825 26.10859375 -25.25 26.6796875 C-29.48976219 31.99831775 -32.18305193 34.21772727 -39 35 C-41.23828125 34.52734375 -41.23828125 34.52734375 -43 34 C-42.50628906 33.37351563 -42.01257813 32.74703125 -41.50390625 32.1015625 C-40.86324219 31.28429688 -40.22257812 30.46703125 -39.5625 29.625 C-38.92441406 28.81289063 -38.28632812 28.00078125 -37.62890625 27.1640625 C-35.97776453 25.10601894 -35.97776453 25.10601894 -35 23 C-37.83945023 24.31051549 -40.40673308 25.53867269 -42.88378906 27.46484375 C-49.20026286 32.34155499 -54.46075644 33.0176406 -62.3125 32.875 C-63.4173877 32.86782959 -64.52227539 32.86065918 -65.66064453 32.85327148 C-74.98104386 32.52891002 -80.06083228 30.28778991 -87 24 C-87.99 23.67 -88.98 23.34 -90 23 C-89.34 24.98 -88.68 26.96 -88 29 C-87.34 29 -86.68 29 -86 29 C-85.01 30.98 -84.02 32.96 -83 35 C-92.47618127 34.31456193 -92.47618127 34.31456193 -96.21875 31.0859375 C-97.4123193 29.65466584 -98.56353897 28.18653081 -99.66015625 26.6796875 C-100.10230469 26.12539063 -100.54445313 25.57109375 -101 25 C-101.66 25 -102.32 25 -103 25 C-101.02 28.63 -99.04 32.26 -97 36 C-103.09893734 34.78021253 -105.0533683 34.30586511 -108.6875 29.4375 C-109.62142578 28.19806641 -109.62142578 28.19806641 -110.57421875 26.93359375 C-111.04472656 26.29550781 -111.51523437 25.65742187 -112 25 C-111.566875 26.299375 -111.566875 26.299375 -111.125 27.625 C-110.08333333 30.75 -109.04166667 33.875 -108 37 C-111.241034 36.39701693 -113.39188385 35.79269341 -115.44140625 33.12109375 C-116.29850473 31.69089062 -117.12679919 30.24293349 -117.921875 28.77734375 C-118.88339836 26.83630458 -118.88339836 26.83630458 -121 26 C-120.62746094 26.69867188 -120.25492188 27.39734375 -119.87109375 28.1171875 C-119.39800781 29.02726562 -118.92492187 29.93734375 -118.4375 30.875 C-117.96183594 31.77992187 -117.48617188 32.68484375 -116.99609375 33.6171875 C-116.66738281 34.40351562 -116.33867187 35.18984375 -116 36 C-116.33 36.66 -116.66 37.32 -117 38 C-120.47132095 36.59070303 -121.88093274 35.09394917 -123.75 31.875 C-124.17796875 31.15054688 -124.6059375 30.42609375 -125.046875 29.6796875 C-125.36140625 29.12539063 -125.6759375 28.57109375 -126 28 C-126 30.46620289 -125.29939157 32.29344126 -124.5 34.625 C-124.08234375 35.85089844 -124.08234375 35.85089844 -123.65625 37.1015625 C-123.4396875 37.72804687 -123.223125 38.35453125 -123 39 C-128.75762866 36.77546166 -130.38478377 34.3310177 -133 29 C-132.54947266 29.93972656 -132.54947266 29.93972656 -132.08984375 30.8984375 C-131.51943359 32.12433594 -131.51943359 32.12433594 -130.9375 33.375 C-130.55464844 34.18710937 -130.17179688 34.99921875 -129.77734375 35.8359375 C-129.39255859 36.90714844 -129.39255859 36.90714844 -129 38 C-129.33 38.66 -129.66 39.32 -130 40 C-133.29148243 38.86500606 -133.9959869 38.00716624 -135.75 34.875 C-136.36875 33.451875 -136.36875 33.451875 -137 32 C-136.7834375 32.8353125 -136.7834375 32.8353125 -136.5625 33.6875 C-135.97230872 36.11384195 -135.476571 38.54906345 -135 41 C-138.53647504 39.32482761 -139.7911563 38.50719183 -141.3125 34.8125 C-141.539375 33.884375 -141.76625 32.95625 -142 32 C-142.66 32 -143.32 32 -144 32 C-143.54947266 32.83144531 -143.54947266 32.83144531 -143.08984375 33.6796875 C-142.51943359 34.76636719 -142.51943359 34.76636719 -141.9375 35.875 C-141.55464844 36.59429687 -141.17179688 37.31359375 -140.77734375 38.0546875 C-140.39255859 39.01761719 -140.39255859 39.01761719 -140 40 C-140.33 40.66 -140.66 41.32 -141 42 C-143.69725519 40.11192137 -145.13216429 38.80175356 -147 36 C-146.34 38.31 -145.68 40.62 -145 43 C-148.16717283 41.41641358 -149.73268318 40.54736301 -151.3125 37.3125 C-151.6528125 36.1678125 -151.6528125 36.1678125 -152 35 C-151.10869587 37.6739124 -150.52268466 40.23723823 -150 43 C-151.32 42.34 -152.64 41.68 -154 41 C-154 41.99 -154 42.98 -154 44 C-155.32 43.67 -156.64 43.34 -158 43 C-158 43.66 -158 44.32 -158 45 C-159.32 44.34 -160.64 43.68 -162 43 C-162 43.99 -162 44.98 -162 46 C-163.32 45.34 -164.64 44.68 -166 44 C-166 44.99 -166 45.98 -166 47 C-168.475 47.495 -168.475 47.495 -171 48 C-171.99 46.02 -171.99 46.02 -173 44 C-173 44.99 -173 45.98 -173 47 C-173.33 47.66 -173.66 48.32 -174 49 C-174.33 48.67 -174.66 48.34 -175 48 C-175.99 48.99 -175.99 48.99 -177 50 C-178.65391846 50.39171753 -180.32345271 50.72057545 -182 51 C-185.67083049 51.71048332 -188.69544617 53.27261959 -192 55 C-192.33 54.67 -192.66 54.34 -193 54 C-193.99 54.99 -193.99 54.99 -195 56 C-196.6476038 56.71247732 -198.31763529 57.37400383 -200 58 C-200.86625 58.350625 -201.7325 58.70125 -202.625 59.0625 C-204.3964928 59.76177347 -206.19322023 60.39774008 -208 61 C-208.5775 61.309375 -209.155 61.61875 -209.75 61.9375 C-212 63 -212 63 -215.5 63.875 C-219.17533398 65.05635735 -220.4333646 66.2500335 -223 69 C-223.99 69 -224.98 69 -226 69 C-229.67996705 70.93682476 -232.77876183 73.38818527 -236 76 C-236.99 76.495 -236.99 76.495 -238 77 C-241.49042429 78.94658278 -244.86111091 80.90740727 -248.1875 83.125 C-251 85 -251 85 -253.3125 86 C-255.21429989 86.88318447 -255.21429989 86.88318447 -255.75 89.125 C-255.8325 89.74375 -255.915 90.3625 -256 91 C-256.99 91 -257.98 91 -259 91 C-262.35785582 92.04932994 -262.98227058 92.96834033 -264.75 96.125 C-265.1625 97.07375 -265.575 98.0225 -266 99 C-267.485 98.505 -267.485 98.505 -269 98 C-269.556875 98.64066406 -270.11375 99.28132813 -270.6875 99.94140625 C-274.99397409 104.82256185 -279.29389098 109.34741133 -284.37109375 113.4296875 C-286.17204769 115.16585893 -286.94466156 116.7491952 -288 119 C-289.57898354 121.0861722 -291.28806605 123.01776069 -293 125 C-292.67 125.66 -292.34 126.32 -292 127 C-292.66 127.66 -293.32 128.32 -294 129 C-301.09140546 137.04970349 -306.11795734 145.62464641 -309 156 C-309.62469505 157.35350594 -310.2716331 158.69934483 -311 160 C-310.34 160.66 -309.68 161.32 -309 162 C-309.66 162.66 -310.32 163.32 -311 164 C-310.67 164.66 -310.34 165.32 -310 166 C-310.99 166.66 -311.98 167.32 -313 168 C-312.01 168.99 -312.01 168.99 -311 170 C-311.66 170 -312.32 170 -313 170 C-313 170.66 -313 171.32 -313 172 C-313.66 172 -314.32 172 -315 172 C-314.01 172.99 -314.01 172.99 -313 174 C-312.67 174.99 -312.34 175.98 -312 177 C-312.66 177 -313.32 177 -314 177 C-314 177.66 -314 178.32 -314 179 C-314.66 179 -315.32 179 -316 179 C-316.25030977 181.41619823 -316.25030977 181.41619823 -316 184 C-315.01 184.66 -314.02 185.32 -313 186 C-312.625 188.5 -312.625 188.5 -313 191 C-313.99 191.66 -314.98 192.32 -316 193 C-316 194.32 -316 195.64 -316 197 C-315.34 197 -314.68 197 -314 197 C-314 197.99 -314 198.98 -314 200 C-313.34 200 -312.68 200 -312 200 C-312 202 -312 202 -313.5 203.625 C-313.995 204.07875 -314.49 204.5325 -315 205 C-313.68 205.33 -312.36 205.66 -311 206 C-311 206.66 -311 207.32 -311 208 C-311.66 208.33 -312.32 208.66 -313 209 C-313 210.32 -313 211.64 -313 213 C-311.07977297 214.77409808 -311.07977297 214.77409808 -309 216 C-309.33 216.33 -309.66 216.66 -310 217 C-309.34 217.66 -308.68 218.32 -308 219 C-308.33 219.33 -308.66 219.66 -309 220 C-308.34 220.66 -307.68 221.32 -307 222 C-307.33 222.33 -307.66 222.66 -308 223 C-307.34 223.66 -306.68 224.32 -306 225 C-306 225.99 -306 226.98 -306 228 C-305.0409375 229.1446875 -305.0409375 229.1446875 -304.0625 230.3125 C-301.40496239 233.77535203 -301 236.70687703 -301 241 C-300.401875 241.598125 -299.80375 242.19625 -299.1875 242.8125 C-296.94958292 245.05041708 -295.55498583 247.26026307 -294 250 C-292.8509288 251.2981424 -292.8509288 251.2981424 -290 252 C-290 252.99 -290 253.98 -290 255 C-289.01 255.33 -288.02 255.66 -287 256 C-287.33 256.99 -287.66 257.98 -288 259 C-287.05125 259.433125 -286.1025 259.86625 -285.125 260.3125 C-282 262 -282 262 -280 265 C-280.66 265.66 -281.32 266.32 -282 267 C-280.78192862 268.15762119 -279.54998765 269.3006583 -278.3125 270.4375 C-277.62800781 271.07558594 -276.94351563 271.71367187 -276.23828125 272.37109375 C-273.77710578 274.16221098 -271.99183426 274.62798558 -269 275 C-268.62875 276.4540625 -268.62875 276.4540625 -268.25 277.9375 C-267.8375 278.948125 -267.425 279.95875 -267 281 C-264.98491642 281.73323796 -264.98491642 281.73323796 -263 282 C-262.505 283.485 -262.505 283.485 -262 285 C-261.443125 285.12375 -260.88625 285.2475 -260.3125 285.375 C-257.4629462 286.14514967 -255.84418172 287.73475445 -253.66015625 289.65625 C-250.97804657 291.82718113 -248.03148255 293.36299942 -245 295 C-244.77983821 299.41618657 -245.2970417 302.36268901 -247.125 306.375 C-249.57978581 311.94520803 -251.73645742 317.56929745 -253.76806641 323.30419922 C-255.42395334 327.84956869 -257.50515442 331.85265455 -260 336 C-272.58450531 332.20948635 -283.6066445 323.83108463 -294 316 C-294.58813477 315.5575293 -295.17626953 315.11505859 -295.78222656 314.65917969 C-303.29960542 308.96469335 -310.40789141 302.96717011 -317.2890625 296.51953125 C-320.33411457 293.68947565 -323.47565286 290.99686581 -326.671875 288.33984375 C-328 287 -328 287 -328 285 C-328.66 285 -329.32 285 -330 285 C-332.54682385 282.53999969 -334.72473286 279.71005845 -337 277 C-337.74636719 276.15179688 -338.49273437 275.30359375 -339.26171875 274.4296875 C-363.67295559 246.20542333 -376.14393724 214.55325962 -374 177 C-371.04490842 145.26516783 -355.22449289 117.19700279 -333.953125 94.140625 C-332.37097392 92.40658742 -330.89053119 90.65300618 -329.4375 88.8125 C-326.25595434 85.14148577 -322.70371799 82.13159895 -319 79 C-318.07316406 78.1853125 -317.14632812 77.370625 -316.19140625 76.53125 C-263.59056138 30.55072577 -193.08703502 9.06748684 -125 0 C-123.83130371 -0.16516113 -122.66260742 -0.33032227 -121.45849609 -0.50048828 C-82.24519199 -5.87224987 -39.15255351 -5.76807842 0 0 Z M10 35 C11 37 11 37 11 37 Z " fill="#FEFDF6" transform="translate(581,22)"/>
<path d="M0 0 C1.86120483 0.00012085 1.86120483 0.00012085 3.76000977 0.00024414 C17.52763548 0.08328169 31.8592193 0.30708772 45.375 3.1875 C46.10826068 6.48461554 46.50596574 9.55139987 46.53321838 12.92683411 C46.5430072 13.85085022 46.55279602 14.77486633 46.56288147 15.72688293 C46.56863693 16.72813705 46.5743924 17.72939117 46.58032227 18.76098633 C46.59022186 19.82485565 46.60012146 20.88872498 46.61032104 21.98483276 C46.64187308 25.4963764 46.66666867 29.00793355 46.69140625 32.51953125 C46.7119812 34.95619557 46.73297782 37.39285635 46.75437927 39.82951355 C46.80954396 46.23934064 46.85897799 52.64919965 46.90722656 59.05908203 C46.95748247 65.60126583 47.01314719 72.14340336 47.06835938 78.68554688 C47.17587244 91.51949144 47.27751634 104.35347554 47.375 117.1875 C47.71151329 116.41672119 47.71151329 116.41672119 48.05482483 115.63037109 C49.08644708 113.27287009 50.12325858 110.91768521 51.16015625 108.5625 C51.51291626 107.75425781 51.86567627 106.94601562 52.22912598 106.11328125 C58.52925591 91.83733916 68.47081607 76.72713501 83.11328125 69.921875 C89.54837555 67.83241433 95.55648804 68.46269727 101.625 71.3125 C122.42686299 83.1429434 128.63315607 109.73096979 134.63183594 131.36669922 C143.89517666 166.52722442 143.89517666 166.52722442 137.18359375 179.48828125 C129.37872374 192.14195334 117.58845122 197.96977946 103.49609375 201.4609375 C84.90269959 205.14111328 63.88090113 201.26458333 48.125 190.875 C46.86744377 189.98980528 45.61424302 189.09815586 44.375 188.1875 C44.47941406 190.04955078 44.47941406 190.04955078 44.5859375 191.94921875 C44.64223028 193.59109158 44.69682881 195.23302311 44.75 196.875 C44.80027344 197.69162109 44.85054687 198.50824219 44.90234375 199.34960938 C45.01385153 203.94001296 44.93043915 205.57717232 41.7265625 209.09765625 C38.64423925 211.01961772 35.74233977 212.58705645 32.375 213.9375 C31.385 214.34484375 30.395 214.7521875 29.375 215.171875 C15.61522295 219.83013286 -0.40915743 217.77500907 -13.375 211.6875 C-17.48029716 209.62160853 -17.48029716 209.62160853 -18.625 206.1875 C-18.74904856 203.82013481 -18.81252931 201.44947555 -18.84619141 199.07910156 C-18.86340775 197.98912447 -18.86340775 197.98912447 -18.88097191 196.87712765 C-18.91784669 194.44417024 -18.94743994 192.01118676 -18.9765625 189.578125 C-19.00020717 187.8478417 -19.02405605 186.11756118 -19.0480957 184.38728333 C-19.11090872 179.71071323 -19.16568279 175.03408333 -19.21753693 170.35737991 C-19.24997162 167.44005275 -19.28395646 164.52274638 -19.3180542 161.60543823 C-19.62445548 134.81477778 -19.66255708 108.03939895 -19.25 81.25 C-19.23928719 80.53747574 -19.22857437 79.82495148 -19.21753693 79.09083557 C-18.98292791 63.59773878 -18.62631477 48.10853495 -18.1484375 32.62109375 C-18.11158844 31.39157486 -18.07473938 30.16205597 -18.03677368 28.89527893 C-17.82968013 22.56125946 -17.54594299 16.23551839 -17.15478516 9.91040039 C-17.07829742 8.67165665 -17.00180969 7.4329129 -16.92300415 6.15663147 C-16.625 3.1875 -16.625 3.1875 -15.625 1.1875 C-10.57253235 -0.49665588 -5.28996224 -0.00316533 0 0 Z " fill="#FEA8A7" transform="translate(597.625,246.8125)"/>
<path d="M0 0 C3.45124607 0.01841516 6.90222521 0.0205081 10.35351562 0.02026367 C12.55664294 0.0251744 14.75976845 0.03100077 16.96289062 0.0378418 C17.98999146 0.03895462 19.01709229 0.04006744 20.07531738 0.04121399 C21.03401733 0.04759384 21.99271729 0.05397369 22.98046875 0.06054688 C23.81839966 0.06435867 24.65633057 0.06817047 25.51965332 0.07209778 C28.06967099 0.2134625 30.43503664 0.68333004 32.93164062 1.20581055 C33.72187132 13.41567636 34.08923471 25.56714919 34.10864258 37.80102539 C34.11492975 39.58042018 34.12157841 41.35981372 34.1285553 43.13920593 C34.14928209 48.89837786 34.15990859 54.65754922 34.16992188 60.41674805 C34.17397737 62.41209551 34.17809451 64.40744285 34.18227196 66.40279007 C34.20123239 75.75836027 34.21549766 85.1139229 34.22388393 94.46950853 C34.23370633 105.24405627 34.26019309 116.01840134 34.30038482 126.79287755 C34.33049011 135.15077272 34.34534634 143.50860937 34.34866494 151.86655772 C34.35101612 156.84866526 34.35999042 161.83055387 34.38512611 166.812603 C34.40832248 171.48317586 34.4126744 176.15338397 34.40236473 180.8239994 C34.40186767 182.5381078 34.40823792 184.25223376 34.42192078 185.96628761 C34.43953414 188.30278609 34.43258796 190.63795895 34.41938782 192.97445679 C34.42177617 194.28214712 34.42416452 195.58983746 34.42662525 196.93715477 C33.84914887 200.75054896 32.92437095 201.87070456 29.93164062 204.20581055 C17.2494976 212.76625709 -0.57691916 212.98708598 -15.23583984 210.89672852 C-22.86370216 209.35461228 -30.50896224 205.76520768 -36.06835938 200.20581055 C-36.16828613 197.74036162 -36.20277617 195.30286655 -36.19534302 192.83686829 C-36.19690301 192.0562052 -36.198463 191.27554212 -36.20007026 190.47122258 C-36.20408357 187.83496295 -36.20088928 185.19876013 -36.19775391 182.5625 C-36.19910786 180.6804857 -36.20088775 178.79847166 -36.20306396 176.91645813 C-36.20764061 171.78817229 -36.20584738 166.65990647 -36.20268488 161.53162026 C-36.20016061 156.17189239 -36.20249918 150.81216629 -36.20407104 145.45243835 C-36.20589333 136.44452607 -36.20348571 127.43662198 -36.19873047 118.42871094 C-36.19329598 108.01384012 -36.19504435 97.5989889 -36.20055687 87.18411857 C-36.20509617 78.25074353 -36.20573429 69.31737439 -36.20311821 60.38399857 C-36.20155887 55.04507672 -36.20135212 49.70616407 -36.20465469 44.36724281 C-36.20754495 39.3432327 -36.20553641 34.3192478 -36.19976044 29.2952404 C-36.19843869 27.45138211 -36.19881703 25.60752169 -36.2010231 23.76366425 C-36.20375778 21.24563791 -36.20032498 18.72769223 -36.19534302 16.20967102 C-36.19757374 15.48076812 -36.19980446 14.75186521 -36.20210278 14.00087434 C-36.18663219 9.96590111 -35.84771507 6.16505789 -35.06835938 2.20581055 C-23.47118234 -0.36051562 -11.81217214 -0.06537789 0 0 Z " fill="#EC7FAE" transform="translate(520.068359375,295.794189453125)"/>
<path d="M0 0 C8.83773008 5.18019703 14.31074357 12.83643888 18.875 21.8125 C19.51671143 23.05483398 19.51671143 23.05483398 20.17138672 24.32226562 C24.46407062 32.73203089 28.2934448 41.31953425 32 50 C32.71083567 51.64327322 33.42177518 53.28650152 34.1328125 54.9296875 C34.83951938 56.57770608 35.54527435 58.22613324 36.25 59.875 C36.56727051 60.61105469 36.88454102 61.34710937 37.21142578 62.10546875 C38.17704936 64.3908963 39.09693284 66.68914218 40 69 C40.54720703 70.36958862 40.54720703 70.36958862 41.10546875 71.7668457 C43.94408041 79.4309709 44.63338626 86.29862827 44.5 94.4375 C44.48718994 95.62529053 44.47437988 96.81308105 44.46118164 98.03686523 C44.16877139 110.65041947 41.97615518 121.50698367 33 131 C19.88216629 141.52609533 2.316913 143.35571434 -13.875 143.25 C-15.05191406 143.25773438 -16.22882813 143.26546875 -17.44140625 143.2734375 C-35.88469877 143.2328582 -57.4829042 140.15139251 -72.09375 127.94921875 C-79.15865668 120.72506212 -81.05731477 111.77650677 -81.375 102 C-80.99790642 80.7780111 -70.79888745 60.40897142 -61 42 C-60.60522461 41.24912109 -60.21044922 40.49824219 -59.80371094 39.72460938 C-54.91142416 30.46024771 -49.93449537 21.91864864 -43 14 C-42.37222656 13.17242188 -41.74445313 12.34484375 -41.09765625 11.4921875 C-30.32456043 -1.30713305 -15.5073099 -6.66388438 0 0 Z " fill="#FE6E45" transform="translate(543,520)"/>
<path d="M0 0 C20.89787183 12.75275535 32.25042544 38.5319711 37.84277344 61.62744141 C40.11454398 71.7829305 40.59767937 81.92823697 40.6875 92.3125 C40.70151855 93.417146 40.71553711 94.52179199 40.72998047 95.65991211 C40.64713592 109.8847462 37.48578893 125.83735978 27.3125 136.4375 C16.66607477 145.57344842 2.54410096 146.09076503 -10.75 145.875 C-11.51730438 145.8685144 -12.28460876 145.86202881 -13.07516479 145.85534668 C-52.28388992 145.51442343 -52.28388992 145.51442343 -66.4921875 131.9296875 C-69.84188388 128.12700727 -71.91113113 124.15660824 -73.6875 119.4375 C-73.94281494 118.77459961 -74.19812988 118.11169922 -74.46118164 117.42871094 C-83.80457872 91.71559317 -68.47063006 62.51964388 -57.75 39.5 C-49.55677191 22.380778 -38.13537818 5.38362736 -19.68359375 -1.71875 C-12.59234721 -3.71576337 -6.57610695 -3.4250557 0 0 Z " fill="#FC6F42" transform="translate(368.6875,489.5625)"/>
<path d="M0 0 C0.96948578 -0.00095673 1.93897156 -0.00191345 2.93783569 -0.00289917 C4.97320623 -0.00357546 7.008579 -0.00175989 9.04394531 0.00244141 C12.14653382 0.00780921 15.24897836 0.00247161 18.3515625 -0.00390625 C20.33854198 -0.0032456 22.32552138 -0.00196471 24.3125 0 C25.23245758 -0.00202423 26.15241516 -0.00404846 27.10025024 -0.00613403 C40.43272165 0.04209665 40.43272165 0.04209665 42.5234375 2.1328125 C42.67687314 3.73986337 42.761836 5.35348848 42.82006836 6.96679688 C42.85910782 8.02233765 42.89814728 9.07787842 42.93836975 10.16540527 C42.97546555 11.34058716 43.01256134 12.51576904 43.05078125 13.7265625 C43.09210678 14.96329712 43.13343231 16.20003174 43.17601013 17.47424316 C43.69101573 33.99438349 43.86612812 50.52104805 44.05566406 67.04748535 C44.09620378 70.50954456 44.14013858 73.97155729 44.18408394 77.43357468 C44.55490417 106.70262214 44.45933535 135.93239099 44.05987549 165.20037842 C43.99857637 169.7129997 43.93881323 174.22564131 43.87890625 178.73828125 C43.76188782 187.5364785 43.64321372 196.33465236 43.5234375 205.1328125 C42.09854353 205.62019615 40.67254463 206.10435022 39.24609375 206.5871582 C38.45211182 206.85712112 37.65812988 207.12708405 36.84008789 207.40522766 C17.88032122 213.35987616 -3.56059269 210.96987608 -21.4765625 203.1328125 C-21.49995861 178.84517818 -21.5175746 154.55754556 -21.52837467 130.26990223 C-21.53352338 118.99186132 -21.54053887 107.71382742 -21.55200195 96.43579102 C-21.56199239 86.60191346 -21.56842629 76.76804099 -21.57065099 66.9341585 C-21.57195071 61.73081151 -21.57498958 56.52747905 -21.58229256 51.32413673 C-21.58912164 46.4183137 -21.59116554 41.51251107 -21.58967018 36.60668373 C-21.58994343 34.81414173 -21.59190743 33.02159899 -21.59576797 31.22906113 C-21.63794716 10.61899192 -21.63794716 10.61899192 -20.4765625 2.1328125 C-16.80939217 -1.53435783 -5.00728777 -0.0110665 0 0 Z " fill="#93C7ED" transform="translate(410.4765625,254.8671875)"/>
<path d="M0 0 C0.804375 0.763125 1.60875 1.52625 2.4375 2.3125 C3.613125 3.3953125 3.613125 3.3953125 4.8125 4.5 C5.67875 5.428125 6.545 6.35625 7.4375 7.3125 C8.01113281 7.90417969 8.58476563 8.49585938 9.17578125 9.10546875 C25.2263602 26.24967432 38.5738277 50.58697213 44.4375 73.3125 C44.79521484 74.44945312 44.79521484 74.44945312 45.16015625 75.609375 C46.58707398 80.63666132 46.63564112 85.68353607 46.6875 90.875 C46.7016394 91.93823486 46.7016394 91.93823486 46.71606445 93.02294922 C46.65749102 102.55605239 43.96629799 112.01713487 37.68359375 119.36328125 C24.51388724 131.78803466 4.19309061 132.48961631 -12.875 132.4375 C-14.75735352 132.44330078 -14.75735352 132.44330078 -16.67773438 132.44921875 C-33.64459727 132.43153572 -52.08784116 131.66707284 -65.36328125 119.6875 C-72.17573585 112.38481914 -74.90322529 103.41225949 -74.7734375 93.61328125 C-72.8132207 62.93951835 -56.04267534 29.09068704 -33.9609375 7.8046875 C-24.34209624 -0.26560966 -12.37207268 -5.86045548 0 0 Z " fill="#EE5B4A" transform="translate(716.5625,499.6875)"/>
<path d="M0 0 C1.80458951 0.97748598 3.33369819 2.07160529 4.9375 3.3515625 C5.535625 3.77953125 6.13375 4.2075 6.75 4.6484375 C29.12067362 22.14807735 43.79661758 57.9051057 47.65234375 85.26953125 C48.95678375 99.36820465 48.47533599 113.63444785 39.60546875 125.4609375 C30.70339148 135.55134827 15.99360169 139.30883672 2.9375 140.3515625 C-16.40924585 141.23864938 -42.76243686 141.94178968 -58.296875 128.3046875 C-65.20667675 120.6611015 -67.65156115 111.48048738 -67.421875 101.33984375 C-65.1311619 69.63282551 -49.18200678 28.37572886 -26.0625 6.3515625 C-18.26765183 0.28615766 -9.98089864 -3.13793404 0 0 Z " fill="#EE5B4A" transform="translate(249.0625,376.6484375)"/>
<path d="M0 0 C18.97976531 18.85964021 25.7770163 50.14046128 26.125 76 C26.10805134 89.77820347 24.09886659 103.58518931 13.97265625 113.8671875 C8.867711 118.06389096 3.03158499 120.20504207 -3.25 122.0625 C-4.42691406 122.42085937 -5.60382813 122.77921875 -6.81640625 123.1484375 C-24.92797076 127.55153163 -47.34536909 124.69174981 -63.6640625 115.75 C-72.26966926 110.13425661 -77.03153731 102.71788807 -80.25 93.0625 C-81.91075071 65.97320566 -71.86964577 37.16823005 -54.2734375 16.3359375 C-53.60570312 15.58570313 -52.93796875 14.83546875 -52.25 14.0625 C-51.31027344 12.99902344 -51.31027344 12.99902344 -50.3515625 11.9140625 C-38.30639337 -0.91772992 -15.74661714 -13.41823016 0 0 Z " fill="#EE5B4A" transform="translate(833.25,397.9375)"/>
<path d="M0 0 C20.80186299 11.8304434 27.00815607 38.41846979 33.00683594 60.05419922 C42.27017666 95.21472442 42.27017666 95.21472442 35.55859375 108.17578125 C27.75372374 120.82945334 15.96345122 126.65727946 1.87109375 130.1484375 C-14.32054922 133.35323657 -33.80098426 130.87356229 -48.25 122.875 C-48.94343506 122.52324707 -49.63687012 122.17149414 -50.35131836 121.80908203 C-53.77327912 119.76143158 -55.90156384 118.25380423 -56.90478516 114.28393555 C-57.08433314 110.94819441 -56.99169672 107.71100783 -56.8125 104.375 C-56.75427043 102.45478695 -56.69609509 100.53457167 -56.63970947 98.61430359 C-56.57244154 96.52688195 -56.48636011 94.44071116 -56.39990234 92.35400391 C-56.25095527 88.42774175 -56.21513993 84.5075436 -56.21037292 80.57870483 C-56.2059044 77.22967587 -56.17593532 73.88108577 -56.14328003 70.53222656 C-56.13128278 68.91133588 -56.12737306 67.29036102 -56.13235474 65.66943359 C-56.15585541 44.91104533 -47.93160433 26.51974844 -34.25 10.875 C-33.63511719 10.16601562 -33.02023437 9.45703125 -32.38671875 8.7265625 C-23.52251316 -0.83043672 -12.50234258 -5.83442654 0 0 Z " fill="#EE5C4B" transform="translate(699.25,318.125)"/>
<path d="M0 0 C6.66260129 3.72725556 14.69854623 10.0963112 18.15234375 17.00390625 C18.24461185 18.51175978 18.27427307 20.02365929 18.27259827 21.53433228 C18.27466026 22.96465538 18.27466026 22.96465538 18.27676392 24.4238739 C18.271371 25.99803825 18.271371 25.99803825 18.26586914 27.60400391 C18.26601517 28.70644943 18.26616119 29.80889496 18.26631165 30.94474792 C18.26561287 34.60250796 18.25782208 38.26021757 18.25 41.91796875 C18.2481357 44.44859794 18.24671185 46.9792275 18.24571228 49.50985718 C18.24227932 55.49864081 18.2343913 61.48740267 18.22436279 67.47617757 C18.21319408 74.29350405 18.20768929 81.11083138 18.20266736 87.92816472 C18.1922085 101.95342199 18.17461376 115.97866312 18.15234375 130.00390625 C9.37961527 133.57905292 0.88780104 134.36793923 -8.53515625 134.31640625 C-9.58590332 134.3122168 -10.63665039 134.30802734 -11.71923828 134.30371094 C-27.64922887 134.07372797 -42.87863077 131.16355091 -54.84765625 120.00390625 C-58.88249425 115.22580862 -60.30655978 109.95234231 -61.84765625 104.00390625 C-62.03457031 103.35421875 -62.22148437 102.70453125 -62.4140625 102.03515625 C-66.23059907 84.15588582 -57.27307864 67.22363029 -49.7578125 51.67578125 C-49.07849206 50.2647727 -48.40009903 48.85331725 -47.72265625 47.44140625 C-47.38862793 46.74716553 -47.05459961 46.0529248 -46.71044922 45.33764648 C-44.38607843 40.40794329 -42.51498589 35.41900684 -40.78515625 30.25390625 C-36.86125038 18.64419085 -32.03995678 6.88220685 -21.0859375 0.359375 C-14.54819195 -2.37717229 -6.6852515 -2.33846246 0 0 Z " fill="#ED6251" transform="translate(370.84765625,304.99609375)"/>
<path d="M0 0 C3 1 3 1 3.85961914 2.65478516 C4.08254639 3.35909668 4.30547363 4.0634082 4.53515625 4.7890625 C4.78716797 5.56636719 5.03917969 6.34367187 5.29882812 7.14453125 C5.55083984 7.96308594 5.80285156 8.78164062 6.0625 9.625 C6.31837891 10.42035156 6.57425781 11.21570313 6.83789062 12.03515625 C8.89187472 18.46639694 10.77369034 24.8958958 12.1875 31.5 C14.08318563 39.14942491 17.53592025 45.97327642 21 53 C32.25209853 75.98185198 42.70684484 102.14462713 36 128 C31.34116837 140.60253438 23.75000318 148.23529262 11.69921875 153.90625 C2.33257849 157.70170481 -10.23747513 157.59887479 -19.625 153.9375 C-30.94167388 148.33379528 -37.72315052 139.22064556 -42.4375 127.625 C-48.74822768 106.4703433 -41.55441254 86.9347253 -31.66723633 68.40942383 C-20.60398006 48.13161499 -20.60398006 48.13161499 -16.53125 43.23364258 C-14.59608081 40.41080091 -13.70981025 37.65552126 -12.66015625 34.3984375 C-12.45192734 33.76193268 -12.24369843 33.12542786 -12.02915955 32.46963501 C-11.36640133 30.44034791 -10.7138358 28.40797914 -10.0625 26.375 C-2.28564427 2.28564427 -2.28564427 2.28564427 0 0 Z " fill="#FFBB22" transform="translate(519,120)"/>
<path d="M0 0 C0.66 0 1.32 0 2 0 C6.68419368 8.9694922 10.69879324 17.9877695 14.34152222 27.41900635 C19.34147611 40.30051418 25.14896868 52.20219071 32.17578125 64.125 C42.97674294 82.48486131 47.58362713 103.67524987 42.8125 124.75 C38.98652365 137.13548625 32.85765436 146.15947326 21.625 152.7734375 C12.38689783 157.09005071 1.45330787 157.5175587 -8.421875 155.1953125 C-19.42040922 151.06373876 -26.9210232 143.78243573 -31.86474609 133.21386719 C-39.92605892 114.73569525 -36.54207629 93.48407358 -29.61694336 75.18432617 C-26.40022866 67.12942385 -22.1808816 59.58440302 -18 52 C-9.07239562 35.74159852 -4.35305841 17.91739143 0 0 Z " fill="#FFBC23" transform="translate(610,79)"/>
<path d="M0 0 C0.66 0 1.32 0 2 0 C2.15557373 0.54712646 2.31114746 1.09425293 2.47143555 1.65795898 C3.76144165 6.19167953 5.05699477 10.72372379 6.359375 15.25390625 C7.35269197 18.71388391 8.32562246 22.17752853 9.265625 25.65234375 C11.69160925 34.4898578 14.89266138 42.59697737 18.94189453 50.83007812 C30.51613851 74.56609117 40.8253338 97.29996107 33 124 C28.79309941 134.93495792 22.51663828 141.85090411 12 147 C1.67229523 151.38844963 -8.65394836 151.23059904 -19.11328125 147.3203125 C-30.53304906 142.09719813 -37.87740907 134.05663324 -42.2734375 122.359375 C-48.51152718 102.10235261 -40.48778378 80.17146155 -31.0625 62.25 C-28.45149418 57.36302682 -25.77999603 52.53212369 -22.875 47.8125 C-13.7260314 32.9134813 -6.40015519 16.23783048 0 0 Z " fill="#FFBB22" transform="translate(423,86)"/>
<path d="M0 0 C6.71304909 1.7507632 11.01206399 5.83184189 15.44140625 10.88671875 C15.96412109 11.46591064 16.48683594 12.04510254 17.02539062 12.6418457 C19.73011138 15.65021757 22.34972115 18.71800793 24.94140625 21.82421875 C48.76361577 48.97702154 88.66646583 66.24856173 122.2109375 77.50390625 C124.87040573 78.43648882 127.42647313 79.46331548 130.0234375 80.55078125 C140.42963599 84.74364086 151.56794916 86.97966486 162.44140625 89.63671875 C163.29460449 89.85392578 164.14780273 90.07113281 165.02685547 90.29492188 C173.88508644 92.52793032 182.67328489 93.72214651 191.7734375 94.40234375 C192.61294449 94.46512512 193.45245148 94.52790649 194.31739807 94.59259033 C198.56606519 94.90238661 202.81447671 95.18238114 207.06762695 95.42285156 C225.95956235 96.58171713 225.95956235 96.58171713 233.06640625 103.01171875 C234.77830572 106.27989046 235.03666038 107.99078719 234.44140625 111.63671875 C231.93218664 116.46214107 229.24329678 119.12372937 224.44140625 121.63671875 C220.88373012 122.13530217 217.40108124 122.06062094 213.81640625 121.94921875 C212.87539063 121.93955078 211.934375 121.92988281 210.96484375 121.91992188 C206.93263883 121.85405489 203.34638605 121.65464607 199.44140625 120.63671875 C198.09031241 120.47669439 196.73542976 120.34662079 195.37890625 120.2421875 C183.94007544 119.27821476 172.88463264 117.56285144 161.67041016 115.12158203 C159.67327766 114.6871565 157.67276723 114.26832865 155.671875 113.8515625 C152.2560233 113.13716152 148.84823157 112.39293366 145.44140625 111.63671875 C144.18972656 111.3634375 142.93804687 111.09015625 141.6484375 110.80859375 C84.98262728 98.15419387 31.58114159 74.65915063 -4.93359375 27.88671875 C-5.3507666 27.35578613 -5.76793945 26.82485352 -6.19775391 26.27783203 C-10.10587236 21.1738389 -13.33503279 16.32565055 -13.02734375 9.671875 C-11.43453133 2.75641443 -6.77965234 -0.16231212 0 0 Z " fill="#FDFEFE" transform="translate(161.55859375,551.36328125)"/>
<path d="M0 0 C6.70020362 1.20336251 11.39402291 6.87838524 15.3125 12.125 C31.29761141 36.24931951 39.12566533 61.04914184 39.375 89.875 C39.38901855 90.979646 39.40303711 92.08429199 39.41748047 93.22241211 C39.33463592 107.4472462 36.17328893 123.39985978 26 134 C15.35357477 143.13594842 1.23160096 143.65326503 -12.0625 143.4375 C-12.82980438 143.4310144 -13.59710876 143.42452881 -14.38766479 143.41784668 C-53.45894935 143.07811849 -53.45894935 143.07811849 -67.85546875 129.31640625 C-70.62770645 126.32198556 -72.41917855 123.7638606 -74 120 C-73.67 119.01 -73.34 118.02 -73 117 C-71.60026042 118.23697917 -70.20052083 119.47395833 -68.80078125 120.7109375 C-62.54988864 125.18554609 -55.35881916 124.64339402 -48 124 C-35.54213604 121.00056901 -25.22877163 111.21894787 -18.375 100.75 C-17.23041962 98.84496145 -16.10516999 96.92816892 -15 95 C-14.48566406 94.13117188 -13.97132813 93.26234375 -13.44140625 92.3671875 C-8.22046196 82.84743972 -5.70081376 72.44419872 -3 62 C-2.80132324 61.24493164 -2.60264648 60.48986328 -2.39794922 59.71191406 C5.24195416 31.25493911 5.24195416 31.25493911 1 3 C0.505 1.515 0.505 1.515 0 0 Z " fill="#EE5B4A" transform="translate(370,492)"/>
<path d="M0 0 C11.27162085 5.3174848 16.16507138 22.36415805 21 33 C21.76231934 34.66264893 21.76231934 34.66264893 22.54003906 36.35888672 C25.68792088 43.23848497 28.76368648 50.14387812 31.74658203 57.09667969 C32.4873011 58.81242397 33.23903507 60.52360063 34.01513672 62.22363281 C40.35514684 76.13331845 40.44199391 94.91998097 36.4375 109.5625 C32.46444505 119.66817983 26.94342413 126.48284447 17 131 C4.86658291 135.89878604 -6.86311485 137.33495246 -19.875 137.25 C-21.05191406 137.25773438 -22.22882812 137.26546875 -23.44140625 137.2734375 C-41.89405808 137.23283761 -63.46049869 134.14372705 -78.08984375 121.95703125 C-82.72231681 117.21087787 -85.48864824 111.64757283 -86 105 C-85.59910156 105.38671875 -85.19820313 105.7734375 -84.78515625 106.171875 C-76.64135653 113.63240807 -69.16703863 115.8524575 -58.203125 115.3828125 C-43.84248626 114.32668782 -31.99806428 108.89115311 -22.09765625 98.484375 C-11.05511803 85.40606157 -5.13533605 70.46529471 -3.4375 53.625 C-3.25417114 51.90470581 -3.25417114 51.90470581 -3.06713867 50.1496582 C-2.82139781 47.83827417 -2.57922712 45.52650748 -2.34082031 43.21435547 C-2.04354567 40.41068932 -1.71626235 37.61399182 -1.3671875 34.81640625 C0.05011015 23.18300559 0.20976097 11.71165427 0 0 Z " fill="#EE5B4A" transform="translate(549,526)"/>
<path d="M0 0 C7.08601816 11.86245384 2.33704365 35.07494203 -0.67578125 48.04296875 C-5.73269342 67.70701078 -13.48758995 91.95146188 -31 104 C-40.82295294 109.63099213 -49.58099269 112.27444278 -61 111 C-64.38446498 109.80440096 -67.2971355 108.38093523 -70 106 C-75.62682569 89.11952292 -65.76658798 65.06142316 -58.25 49.875 C-48.90894452 31.69257924 -36.43422924 8.76487255 -16.58203125 0.609375 C-11.14608263 -0.67354177 -5.54200409 -0.28380106 0 0 Z " fill="#FE6E45" transform="translate(713,498)"/>
<path d="M0 0 C2.16796875 1.3984375 2.16796875 1.3984375 4.125 3 C4.82238281 3.56976562 5.51976562 4.13953125 6.23828125 4.7265625 C17.29683711 14.84795261 22.8076536 29.29537843 28.99926758 42.60913086 C30.01029714 44.75639013 31.05347457 46.88241052 32.125 49 C25.40632638 51.75930946 18.65566202 53.36138161 11.5625 54.875 C9.12629112 55.40229309 6.69009337 55.92963761 4.25390625 56.45703125 C3.04492676 56.71693848 1.83594727 56.9768457 0.59033203 57.24462891 C-2.47866746 57.91360766 -5.53897071 58.60985648 -8.59765625 59.32421875 C-27.56799394 63.70856577 -46.87815761 66.63275881 -66.21484375 68.875 C-67.32609619 69.00438965 -68.43734863 69.1337793 -69.58227539 69.26708984 C-71.63860025 69.49942682 -73.69639232 69.71924718 -75.75561523 69.92431641 C-76.65868408 70.02405762 -77.56175293 70.12379883 -78.4921875 70.2265625 C-79.27190918 70.30471191 -80.05163086 70.38286133 -80.85498047 70.46337891 C-83.2790818 71.10734491 -84.27684253 72.10779683 -85.875 74 C-86.535 73.67 -87.195 73.34 -87.875 73 C-86.905625 72.175 -85.93625 71.35 -84.9375 70.5 C-77.51846751 62.97730837 -73.16593346 52.77482571 -68.69140625 43.33984375 C-68.13275879 42.16196289 -67.57411133 40.98408203 -66.99853516 39.77050781 C-65.90114153 37.43842719 -64.8155295 35.10075406 -63.74365234 32.75683594 C-56.43433477 17.11329491 -47.28986245 5.26993926 -30.875 -1 C-22.29395991 -3.8603467 -8.21123893 -3.85346331 0 0 Z " fill="#FBB75A" transform="translate(630.875,782)"/>
<path d="M0 0 C10.6091066 9.15795338 16.76188794 20.20615036 23.0859375 32.484375 C23.60833008 33.49612793 24.13072266 34.50788086 24.66894531 35.55029297 C25.70004009 37.55548254 26.72322326 39.56476609 27.73730469 41.57861328 C30.7234762 47.41794866 33.98237036 52.65996102 38.125 57.75 C37.795 58.41 37.465 59.07 37.125 59.75 C6.98616127 55.27043336 -23.09515853 49.96920297 -52.3515625 41.359375 C-56.35628232 40.18177406 -60.37220416 39.05494215 -64.3984375 37.953125 C-65.50662842 37.64874512 -66.61481934 37.34436523 -67.7565918 37.03076172 C-69.89494072 36.44489107 -72.03436335 35.86291935 -74.17504883 35.28564453 C-80.60483596 33.51389962 -86.74040175 31.3681272 -92.875 28.75 C-92.545 27.76 -92.215 26.77 -91.875 25.75 C-91.215 25.75 -90.555 25.75 -89.875 25.75 C-89.60421631 25.15541992 -89.33343262 24.56083984 -89.05444336 23.94824219 C-87.14387338 20.38732891 -84.28927116 17.82644728 -81.4375 15 C-80.81222412 14.37818848 -80.18694824 13.75637695 -79.54272461 13.11572266 C-74.34798885 8.04068737 -68.97758587 3.71115129 -62.875 -0.25 C-62.28847656 -0.65476562 -61.70195312 -1.05953125 -61.09765625 -1.4765625 C-59.39831828 -2.56513597 -57.71534832 -3.42054724 -55.875 -4.25 C-55.05902344 -4.62125 -54.24304688 -4.9925 -53.40234375 -5.375 C-36.52152664 -11.78036934 -14.78339151 -10.69489875 0 0 Z " fill="#FBB75A" transform="translate(403.875,789.25)"/>
<path d="M0 0 C3.78178455 4.159963 3.2364017 8.69536436 3 14 C1.05739828 39.3406295 -6.81838911 67.09914984 -20 89 C-20.48597656 89.83789062 -20.97195313 90.67578125 -21.47265625 91.5390625 C-25.66451756 97.96113415 -31.8986954 100.63289847 -39 103 C-49.44315803 103.69621054 -58.85589511 102.41731861 -69 100 C-75.92855497 79.21433508 -63.99309865 55.33358912 -55.140625 37.125 C-51.51039763 30.0643743 -47.27612406 23.92800039 -42 18 C-41.06027344 16.93652344 -41.06027344 16.93652344 -40.1015625 15.8515625 C-31.29736547 6.4723975 -13.27417805 -6.48959816 0 0 Z " fill="#FE6E45" transform="translate(823,394)"/>
<path d="M0 0 C2.99909251 1.68257438 5.39078107 3.75557474 7.76171875 6.2109375 C7.34921875 6.63761719 6.93671875 7.06429688 6.51171875 7.50390625 C-5.89246842 20.93254638 -14.63379057 38.62122794 -16.16796875 56.8984375 C-16.32518314 58.58466694 -16.48274678 60.27086384 -16.640625 61.95703125 C-16.8778502 64.57137958 -17.11111934 67.18595069 -17.33740234 69.80126953 C-20.45608078 105.4056179 -20.45608078 105.4056179 -31.67578125 115.7109375 C-36.85980679 119.6745337 -41.74901439 120.76087537 -48.23828125 120.2109375 C-55.43898237 118.57383316 -60.9936327 115.45558605 -66.23828125 110.2109375 C-66.56828125 110.2109375 -66.89828125 110.2109375 -67.23828125 110.2109375 C-69.90263603 78.83075898 -52.27254377 37.62543895 -33.05078125 13.4609375 C-24.60756348 3.61051677 -13.67379775 -4.82043132 0 0 Z " fill="#FC6E42" transform="translate(249.23828125,376.7890625)"/>
<path d="M0 0 C4.80961971 25.25050346 6.69554936 64.32505309 -8.25 86.85546875 C-17.67851959 98.40961441 -31.80096518 102.24826351 -46 104 C-48.67631226 104.08469707 -51.32120339 104.05661528 -54 104 C-54.0071211 99.76175988 -54.00739308 95.52357823 -54.0020752 91.28533936 C-54.00069883 89.76959291 -54.00060403 88.25384472 -54.00183105 86.73809814 C-54.00411585 81.99525423 -53.97058601 77.25432626 -53.90234375 72.51196289 C-53.88413551 70.88086244 -53.876624 69.24960703 -53.87988281 67.6184082 C-53.90533305 46.45017678 -45.99305707 28.00089087 -32 12 C-31.38511719 11.29101562 -30.77023437 10.58203125 -30.13671875 9.8515625 C-22.00135918 1.08037323 -11.97012874 -3.99004291 0 0 Z " fill="#FE744D" transform="translate(697,317)"/>
<path d="M0 0 C3.71990374 1.56699242 6.83879349 3.50078732 10 6 C9.2884375 7.0725 8.576875 8.145 7.84375 9.25 C-3.82618016 27.9547613 -10.55040922 49.03070164 -12.84448242 70.76342773 C-14.15197132 82.56322256 -16.13153847 95.34219076 -25 104 C-25.86044922 104.84111328 -25.86044922 104.84111328 -26.73828125 105.69921875 C-34.03369863 111.93732926 -43.61441471 113.67039895 -53 113 C-54.33869435 112.68889498 -55.67379086 112.36063582 -57 112 C-64.19477657 90.24436609 -56.34603639 72.19315839 -46.91015625 52.671875 C-46.23083581 51.26086645 -45.55244278 49.849411 -44.875 48.4375 C-44.54097168 47.74325928 -44.20694336 47.04901855 -43.86279297 46.33374023 C-41.53842218 41.40403704 -39.66732964 36.41510059 -37.9375 31.25 C-34.01359413 19.6402846 -29.19230053 7.8783006 -18.23828125 1.35546875 C-12.32689507 -1.11889917 -6.27877089 -0.83415185 0 0 Z " fill="#FC764B" transform="translate(368,304)"/>
<path d="M0 0 C4.78823077 3.74825304 7.91733211 8.38199242 11.19921875 13.4609375 C13.68954995 16.3096902 15.66091102 16.96639646 19.2890625 17.8515625 C20.22507378 22.76831138 20.22507378 22.76831138 19.2890625 25.8515625 C16.06631762 28.83023303 12.28537919 30.70316359 8.4140625 32.7265625 C7.31360596 33.33242188 6.21314941 33.93828125 5.0793457 34.5625 C2.85253553 35.78563408 0.618889 36.99640852 -1.62158203 38.19433594 C-4.22412078 39.59041884 -6.79979036 41.01837685 -9.36328125 42.484375 C-22.58079392 50.0289116 -36.16337285 56.92369049 -49.7109375 63.8515625 C-51.38591309 64.72071289 -51.38591309 64.72071289 -53.09472656 65.60742188 C-54.1669043 66.15720703 -55.23908203 66.70699219 -56.34375 67.2734375 C-57.3042627 67.7694043 -58.26477539 68.26537109 -59.25439453 68.77636719 C-61.7109375 69.8515625 -61.7109375 69.8515625 -64.7109375 69.8515625 C-64.9996875 70.4909375 -65.2884375 71.1303125 -65.5859375 71.7890625 C-66.7109375 73.8515625 -66.7109375 73.8515625 -68.7109375 74.8515625 C-66.65193722 68.3937889 -64.2660292 62.12707489 -61.7109375 55.8515625 C-60.77266671 53.49770293 -59.83523333 51.14350947 -58.8984375 48.7890625 C-58.3792392 47.49856391 -57.85969989 46.20820248 -57.33984375 44.91796875 C-56.22228854 42.1419751 -55.13043119 39.35734235 -54.05078125 36.56640625 C-48.3013092 21.89477042 -40.85549894 4.80454889 -25.7109375 -2.1484375 C-16.72533871 -5.15940131 -8.1336043 -5.45954261 0 0 Z " fill="#FAB75A" transform="translate(857.7109375,712.1484375)"/>
<path d="M0 0 C4.45990172 3.51730018 7.20120911 7.37064883 10.05859375 12.26171875 C16.80046533 23.62882781 23.53186798 27.5387743 36.12109375 30.82421875 C38.15142222 31.46138285 40.17330867 32.12638948 42.18359375 32.82421875 C43.04082031 33.11296875 43.89804687 33.40171875 44.78125 33.69921875 C47.52750766 35.0196231 49.15279419 36.50960367 51.12109375 38.82421875 C52.32752941 42.44352573 52.44377934 45.0165288 52.12109375 48.82421875 C50.38442848 52.29754928 48.7944531 54.32351564 45.68359375 56.63671875 C35.1189301 60.1582733 25.06490744 59.2649454 15.12109375 54.63671875 C0.94633449 47.12212459 -11.17888757 34.82001807 -17.07421875 19.7734375 C-18.46762934 14.66652004 -19.29210133 8.77324155 -16.93359375 3.8515625 C-12.40497491 -1.94449997 -6.47997038 -4.05503344 0 0 Z " fill="#FCE8C9" transform="translate(459.87890625,796.17578125)"/>
<path d="M0 0 C4.49179898 3.80747304 6.93930504 8.03312336 9.5625 13.1875 C9.98160645 13.99469482 10.40071289 14.80188965 10.83251953 15.63354492 C15.12659576 24.02151649 19.03536698 32.59256404 22.88891602 41.19018555 C27.49357902 52.13016719 27.49357902 52.13016719 36.625 59.125 C41.68549661 61.52636166 41.68549661 61.52636166 43.3046875 63.96484375 C44.41944205 67.22769273 44.4797875 69.58151407 44 73 C41.545471 76.02751053 38.6996655 77.76677817 35 79 C27.04033937 79.54894211 20.34413237 78.15232665 13.9375 73.1875 C1.79350714 61.51974216 -4.14896108 42.11102274 -11 27 C-11.4112915 26.11159424 -11.82258301 25.22318848 -12.24633789 24.30786133 C-12.6046167 23.52564209 -12.96289551 22.74342285 -13.33203125 21.9375 C-13.78799683 20.95136719 -13.78799683 20.95136719 -14.25317383 19.9453125 C-16.15850214 14.98236515 -16.57608408 10.63729161 -14.8125 5.625 C-10.91339696 -0.02197682 -6.70235449 -1.87665926 0 0 Z " fill="#FCE8C9" transform="translate(231,739)"/>
<path d="M0 0 C0.92506348 0.00572021 1.85012695 0.01144043 2.80322266 0.01733398 C9.7017688 0.19836139 15.03538382 1.10751539 20.5625 5.5 C21.17609375 5.97308594 21.7896875 6.44617188 22.421875 6.93359375 C33.33113162 16.61193867 39.96463553 32.94079494 44.5625 46.5 C44.5625 47.49 44.5625 48.48 44.5625 49.5 C40.3711819 48.18121204 36.46920146 46.60497311 32.51171875 44.69921875 C31.34946777 44.14008789 30.1872168 43.58095703 28.98974609 43.00488281 C27.74298106 42.39946527 26.49640302 41.79366249 25.25 41.1875 C24.61765442 40.88130737 23.98530884 40.57511475 23.33380127 40.25964355 C-10.08758309 24.06661127 -10.08758309 24.06661127 -18.4375 18.5 C-18.82161275 15.890379 -19.04043197 13.4941926 -19.125 10.875 C-19.15916016 10.16859375 -19.19332031 9.4621875 -19.22851562 8.734375 C-19.31101308 6.99014312 -19.37593335 5.24509605 -19.4375 3.5 C-12.88308007 0.88662361 -7.0394566 -0.05054691 0 0 Z " fill="#FBB75B" transform="translate(160.4375,726.5)"/>
<path d="M0 0 C6.15442973 3.79268469 9.5325126 10.92099874 13.15649414 16.94140625 C16.30846489 22.10625439 19.85731155 26.4931147 24.01953125 30.8984375 C28.56335906 35.72009304 32.12880166 40.04471016 32 47 C30.23358828 49.80189446 28.96950178 51.51524911 26 53 C18.00186788 54.01221174 12.78078918 51.92802443 6.5234375 47.08203125 C-3.09974821 38.86888937 -13.72699646 25.72960129 -15.2734375 12.6953125 C-15.5495091 5.70857752 -15.5495091 5.70857752 -12.625 1.9375 C-8.29789461 -1.25631588 -5.14962202 -1.59101667 0 0 Z " fill="#FCE8C9" transform="translate(684,781)"/>
<path d="M0 0 C4.18821712 2.5249827 6.81397481 5.19214977 8.4921875 9.74609375 C9.25801961 13.41702452 9.30576392 15.65185179 7.34375 18.921875 C3.26877667 23.75049931 0.31023591 26.40895985 -6.11328125 26.97265625 C-7.58699313 27.00258946 -9.06114385 27.0149058 -10.53515625 27.01171875 C-11.67815186 27.00930176 -11.67815186 27.00930176 -12.84423828 27.00683594 C-18.64028748 26.88005125 -22.48879592 26.09009819 -27.28515625 22.63671875 C-30.9228028 18.70942352 -30.79660099 15.42347645 -30.625 10.26171875 C-30.04781885 5.80349195 -28.18881196 4.11462113 -24.765625 1.45703125 C-17.77866941 -2.95738514 -7.49250323 -3.1092552 0 0 Z " fill="#FDFEFD" transform="translate(453.28515625,658.36328125)"/>
<path d="M0 0 C5.50018413 2.86009575 10.00950159 7.02850476 12 13 C12.67195988 19.83159214 12.67195988 19.83159214 10.953125 22.8203125 C8.63063062 25.64829095 6.77862034 27.81502348 3.046875 28.203125 C-2.0853387 28.30786406 -5.62755836 27.98121021 -10 25 C-13.77091539 21.25974245 -15.80527875 18.0640453 -16.3125 12.6875 C-15.93790854 8.26732079 -14.83614013 6.37270719 -12 3 C-8.07324125 -0.18385844 -4.98824428 -0.6125914 0 0 Z " fill="#FCE8C9" transform="translate(213,707)"/>
<path d="M0 0 C0.33 0 0.66 0 1 0 C1 2.97 1 5.94 1 9 C2.98 8.34 4.96 7.68 7 7 C6.67 8.32 6.34 9.64 6 11 C8.97 10.01 11.94 9.02 15 8 C14.35474023 9.4585872 13.7087728 10.91686137 13.0625 12.375 C12.70285156 13.18710937 12.34320313 13.99921875 11.97265625 14.8359375 C11.3430097 16.23683785 10.68687358 17.62625284 10 19 C10.66 19.33 11.32 19.66 12 20 C12.226875 19.278125 12.45375 18.55625 12.6875 17.8125 C14.29093533 14.37656715 16.098102 12.429496 19 10 C20.65 9.67 22.3 9.34 24 9 C22.02 12.96 20.04 16.92 18 21 C19.4540625 19.8553125 19.4540625 19.8553125 20.9375 18.6875 C21.48277344 18.25824219 22.02804687 17.82898438 22.58984375 17.38671875 C24.27155077 15.94316909 24.27155077 15.94316909 25 13 C26.32 12.67 27.64 12.34 29 12 C29 17.28 29 22.56 29 28 C19.76 28.66 10.52 29.32 1 30 C0.67 20.1 0.34 10.2 0 0 Z " fill="#FEFDF3" transform="translate(454,353)"/>
<path d="M0 0 C3.03657673 0.54658381 4.82630596 1.33777916 7.1484375 3.38671875 C10.01372624 7.7340534 10.90054082 11.21600843 10.1484375 16.38671875 C7.9756953 19.01688036 6.20169962 20.86008769 3.1484375 22.38671875 C-1.44186711 22.43181015 -4.96548572 21.95897667 -8.8515625 19.44921875 C-11.56661735 16.64931844 -12.05808556 14.94688944 -12.2265625 11.13671875 C-12.16753605 7.81513924 -11.82402249 5.57429859 -9.9140625 2.82421875 C-6.29954496 -0.05264215 -4.48909986 -0.33556394 0 0 Z " fill="#FCE8C9" transform="translate(663.8515625,754.61328125)"/>
<path d="M0 0 C6.46341463 2.31707317 6.46341463 2.31707317 8.71875 5.1875 C11.03853995 10.27972183 10.16708943 15.48604896 10 21 C2.08 21 -5.84 21 -14 21 C-14 15.39 -14 9.78 -14 4 C-10.62838643 5.12387119 -10.27964829 5.70399403 -8.4375 8.5625 C-7.25007983 10.46890121 -7.25007983 10.46890121 -6 12 C-5.34 12 -4.68 12 -4 12 C-4.3609375 11.37351562 -4.721875 10.74703125 -5.09375 10.1015625 C-5.5578125 9.28429687 -6.021875 8.46703125 -6.5 7.625 C-6.9640625 6.81289063 -7.428125 6.00078125 -7.90625 5.1640625 C-9 3 -9 3 -9 1 C-2.82805578 1.96814811 -2.82805578 1.96814811 -0.4921875 4.87890625 C0.36038949 6.30582402 1.17880991 7.75386308 1.95703125 9.22265625 C2.88141548 11.16782346 2.88141548 11.16782346 5 12 C4.6390625 11.30132812 4.278125 10.60265625 3.90625 9.8828125 C3.4421875 8.97273438 2.978125 8.06265625 2.5 7.125 C2.0359375 6.22007812 1.571875 5.31515625 1.09375 4.3828125 C0 2 0 2 0 0 Z " fill="#FEFDF2" transform="translate(568,361)"/>
<path d="M0 0 C0.99 0 1.98 0 3 0 C1.3602173 13.92142045 -5.84259444 27.75696711 -14 39 C-14.99 39.66 -15.98 40.32 -17 41 C-17.33 40.34 -17.66 39.68 -18 39 C-16.71243886 36.65815351 -15.37448554 34.43530798 -13.9375 32.1875 C-10.14402159 26.09274348 -6.97658932 19.99654562 -4.09375 13.4140625 C-3 11 -3 11 -2 10 C-1.6451046 8.00371336 -1.31421071 6.00309329 -1 4 C-0.68325425 2.66262906 -0.35729936 1.32711192 0 0 Z " fill="#FFF9E6" transform="translate(751,230)"/>
<path d="M0 0 C0.66 0 1.32 0 2 0 C0.40189706 3.84628166 -2.07962952 6.38182145 -4.9375 9.375 C-12.27735937 17.20712221 -19.4517215 25.48960327 -24.9375 34.75 C-26.99072006 37.98537706 -27.6777551 38.5850982 -31 40 C-25.11627907 28.02325581 -25.11627907 28.02325581 -23 25 C-22.34 25 -21.68 25 -21 25 C-20.896875 24.401875 -20.79375 23.80375 -20.6875 23.1875 C-19.87482635 20.6017202 -19.01062204 19.79519825 -17 18 C-15.9171875 16.9171875 -15.9171875 16.9171875 -14.8125 15.8125 C-13.22720271 14.22720271 -11.63863373 12.6451124 -10.0390625 11.07421875 C-7.06401174 8.13787682 -4.22298836 5.28166951 -1.625 2 C-1.08875 1.34 -0.5525 0.68 0 0 Z " fill="#FFF9E4" transform="translate(324,125)"/>
<path d="M0 0 C0.99 0.66 1.98 1.32 3 2 C1.39306847 7.08050068 -0.57646264 11.96184129 -2.625 16.875 C-2.94984375 17.65875 -3.2746875 18.4425 -3.609375 19.25 C-4.40440762 21.16743162 -5.20194851 23.0838229 -6 25 C-6.33 25 -6.66 25 -7 25 C-7 17.41 -7 9.82 -7 2 C-5.68 2.33 -4.36 2.66 -3 3 C-2.01 2.67 -1.02 2.34 0 2 C0 1.34 0 0.68 0 0 Z " fill="#FFFCF0" transform="translate(651,342)"/>
<path d="M0 0 C0.66 0.66 1.32 1.32 2 2 C-3.61 7.61 -9.22 13.22 -15 19 C-15.99 18.67 -16.98 18.34 -18 18 C-12.74495738 10.83670168 -7.16329832 5.25504262 0 0 Z " fill="#FFFAE5" transform="translate(727,277)"/>
<path d="M0 0 C0.99 0.33 1.98 0.66 3 1 C3 6.28 3 11.56 3 17 C2.01 16.67 1.02 16.34 0 16 C0 10.72 0 5.44 0 0 Z " fill="#FFFCEA" transform="translate(760,202)"/>
<path d="M0 0 C0.66 0.66 1.32 1.32 2 2 C-1.96 5.96 -5.92 9.92 -10 14 C-10.66 13.34 -11.32 12.68 -12 12 C-8.04 8.04 -4.08 4.08 0 0 Z " fill="#FFFDEA" transform="translate(730,282)"/>
<path d="M0 0 C0.66 0 1.32 0 2 0 C2 1.32 2 2.64 2 4 C1.34 4 0.68 4 0 4 C0 8.62 0 13.24 0 18 C0.66 18 1.32 18 2 18 C2 19.32 2 20.64 2 22 C1.01 21.67 0.02 21.34 -1 21 C-1.02888146 17.68751813 -1.04675799 14.37506833 -1.0625 11.0625 C-1.07087891 10.11697266 -1.07925781 9.17144531 -1.08789062 8.19726562 C-1.09111328 7.29814453 -1.09433594 6.39902344 -1.09765625 5.47265625 C-1.10289307 4.64000244 -1.10812988 3.80734863 -1.11352539 2.94946289 C-1 1 -1 1 0 0 Z " fill="#FFFDEA" transform="translate(275,199)"/>
<path d="M0 0 C4.13621084 3.3810038 7.81316569 6.66590534 11 11 C8 11 8 11 5.73828125 9.03125 C4.93777344 8.1959375 4.13726563 7.360625 3.3125 6.5 C2.50425781 5.6646875 1.69601562 4.829375 0.86328125 3.96875 C0.24839844 3.3190625 -0.36648438 2.669375 -1 2 C-0.67 1.34 -0.34 0.68 0 0 Z " fill="#FFF9E6" transform="translate(715,128)"/>
<path d="M0 0 C0.66 0 1.32 0 2 0 C2.24954005 1.43410368 2.47392642 2.87260072 2.6875 4.3125 C2.87892578 5.51326172 2.87892578 5.51326172 3.07421875 6.73828125 C3 9 3 9 0 12 C0 8.04 0 4.08 0 0 Z " fill="#FFF9E4" transform="translate(281,204)"/>
<path d="M0 0 C0.66 0.66 1.32 1.32 2 2 C-0.97 4.97 -3.94 7.94 -7 11 C-7.66 10.34 -8.32 9.68 -9 9 C-6.03 6.03 -3.06 3.06 0 0 Z " fill="#FFFDEA" transform="translate(315,126)"/>
<path d="M0 0 C1.12894876 0.93274109 2.25300876 1.87140122 3.375 2.8125 C4.00148438 3.33457031 4.62796875 3.85664063 5.2734375 4.39453125 C7 6 7 6 9 9 C6 9 6 9 4.17578125 7.46875 C3.56089844 6.8190625 2.94601562 6.169375 2.3125 5.5 C1.68988281 4.8503125 1.06726563 4.200625 0.42578125 3.53125 C-0.04472656 3.0259375 -0.51523437 2.520625 -1 2 C-0.67 1.34 -0.34 0.68 0 0 Z " fill="#FFF9E6" transform="translate(313,282)"/>
<path d="M0 0 C0.33 0 0.66 0 1 0 C1.125 6.75 1.125 6.75 0 9 C-0.66 9 -1.32 9 -2 9 C-2.125 5.625 -2.125 5.625 -2 2 C-1.34 1.34 -0.68 0.68 0 0 Z " fill="#FFF9E6" transform="translate(755,214)"/>
<path d="M0 0 C0.66 0 1.32 0 2 0 C3.4783226 2.95664519 3.06032783 5.74229737 3 9 C2.01 8.34 1.02 7.68 0 7 C-0.1875 3.375 -0.1875 3.375 0 0 Z " fill="#FFF9E6" transform="translate(753,198)"/>
</svg>
